<svg xmlns="http://www.w3.org/2000/svg" viewBox="0 0 528.24 455.32"><defs><style>.cls-1{isolation:isolate;}.cls-2{opacity:0.7;}.cls-3{fill:#fff;}.cls-11,.cls-28,.cls-38,.cls-4,.cls-6{fill:#808181;}.cls-4{opacity:0.39;}.cls-37,.cls-38,.cls-4{mix-blend-mode:color-burn;}.cls-5{fill:#df554f;}.cls-10,.cls-25,.cls-28,.cls-6{opacity:0.5;}.cls-10,.cls-6{mix-blend-mode:multiply;}.cls-7{fill:#fff9dc;}.cls-8{fill:#583017;}.cls-9{fill:#9ec761;}.cls-12{fill:#7eb034;}.cls-13{fill:#1e3f5f;}.cls-14{fill:#233240;}.cls-15{fill:#486b90;}.cls-16{fill:#fdd6a7;}.cls-17{fill:#e7e6e6;}.cls-18{fill:#e8b17e;}.cls-19{fill:#eec293;}.cls-20{fill:#364a5e;}.cls-21{fill:#fab720;}.cls-22{fill:#d41122;}.cls-23{fill:#edb485;}.cls-24{fill:#fac7a1;}.cls-25{fill:#edf0f2;}.cls-26{fill:#78492b;}.cls-27{fill:#371f12;}.cls-29{fill:#86cee3;}.cls-30{fill:#1d2c39;}.cls-31{fill:#ffe26f;}.cls-32{fill:#f5ae11;}.cls-33{fill:#0e161f;}.cls-34{fill:#183051;}.cls-35{fill:#a41a16;}.cls-36{fill:#861811;}.cls-37,.cls-38{opacity:0.46;}</style></defs><title>drawkit-nature-man-colour</title><g class="cls-1"><g id="Layer_1" data-name="Layer 1"><g class="cls-2"><path class="cls-3" d="M167.9,525.79a1.57,1.57,0,1,0,1.56,1.57A1.56,1.56,0,0,0,167.9,525.79Z" transform="translate(-54.05 -79.63)"/><circle class="cls-3" cx="121.21" cy="447.72" r="1.56"/><circle class="cls-3" cx="128.58" cy="447.72" r="1.56"/><path class="cls-3" d="M190,525.79a1.57,1.57,0,1,0,1.56,1.57A1.56,1.56,0,0,0,190,525.79Z" transform="translate(-54.05 -79.63)"/><circle class="cls-3" cx="143.31" cy="447.72" r="1.56"/><circle class="cls-3" cx="150.67" cy="447.72" r="1.56"/><circle class="cls-3" cx="158.03" cy="447.72" r="1.56"/><path class="cls-3" d="M219.45,525.79a1.57,1.57,0,1,0,1.56,1.57A1.56,1.56,0,0,0,219.45,525.79Z" transform="translate(-54.05 -79.63)"/><path class="cls-3" d="M226.82,525.79a1.57,1.57,0,1,0,1.56,1.57A1.57,1.57,0,0,0,226.82,525.79Z" transform="translate(-54.05 -79.63)"/><circle class="cls-3" cx="180.13" cy="447.72" r="1.56"/><path class="cls-3" d="M241.54,525.79a1.57,1.57,0,1,0,1.57,1.57A1.56,1.56,0,0,0,241.54,525.79Z" transform="translate(-54.05 -79.63)"/><circle class="cls-3" cx="248.91" cy="527.36" r="1.56" transform="translate(-135.09 -33.1) rotate(-9.19)"/><circle class="cls-3" cx="202.22" cy="447.72" r="1.56"/><circle class="cls-3" cx="209.59" cy="447.72" r="1.56"/><circle class="cls-3" cx="271" cy="527.36" r="1.56" transform="translate(-134.82 -29.57) rotate(-9.19)"/><path class="cls-3" d="M278.37,525.79a1.57,1.57,0,1,0,1.56,1.57A1.56,1.56,0,0,0,278.37,525.79Z" transform="translate(-54.05 -79.63)"/><circle class="cls-3" cx="231.68" cy="447.72" r="1.56"/><circle class="cls-3" cx="293.1" cy="527.36" r="1.56" transform="translate(-134.54 -26.03) rotate(-9.19)"/><path class="cls-3" d="M300.46,525.79a1.57,1.57,0,1,0,1.56,1.57A1.56,1.56,0,0,0,300.46,525.79Z" transform="translate(-54.05 -79.63)"/><circle class="cls-3" cx="253.77" cy="447.72" r="1.56"/><path class="cls-3" d="M315.19,525.79a1.57,1.57,0,1,0,1.56,1.57A1.56,1.56,0,0,0,315.19,525.79Z" transform="translate(-54.05 -79.63)"/><path class="cls-3" d="M322.55,525.79a1.57,1.57,0,1,0,1.56,1.57A1.56,1.56,0,0,0,322.55,525.79Z" transform="translate(-54.05 -79.63)"/><circle class="cls-3" cx="275.87" cy="447.72" r="1.56"/><path class="cls-3" d="M337.28,525.79a1.57,1.57,0,1,0,1.56,1.57A1.56,1.56,0,0,0,337.28,525.79Z" transform="translate(-54.05 -79.63)"/><path class="cls-3" d="M344.65,525.79a1.57,1.57,0,1,0,1.56,1.57A1.56,1.56,0,0,0,344.65,525.79Z" transform="translate(-54.05 -79.63)"/><circle class="cls-3" cx="297.96" cy="447.72" r="1.56"/><circle class="cls-3" cx="305.32" cy="447.72" r="1.56"/><path class="cls-3" d="M366.74,525.79a1.57,1.57,0,1,0,1.56,1.57A1.56,1.56,0,0,0,366.74,525.79Z" transform="translate(-54.05 -79.63)"/><path class="cls-3" d="M374.1,525.79a1.57,1.57,0,1,0,1.57,1.57A1.56,1.56,0,0,0,374.1,525.79Z" transform="translate(-54.05 -79.63)"/><circle class="cls-3" cx="327.42" cy="447.72" r="1.56"/><path class="cls-3" d="M388.83,525.79a1.57,1.57,0,1,0,1.56,1.57A1.56,1.56,0,0,0,388.83,525.79Z" transform="translate(-54.05 -79.63)"/><path class="cls-3" d="M396.2,525.79a1.57,1.57,0,1,0,1.56,1.57A1.56,1.56,0,0,0,396.2,525.79Z" transform="translate(-54.05 -79.63)"/><circle class="cls-3" cx="349.51" cy="447.72" r="1.56"/><circle class="cls-3" cx="356.87" cy="447.72" r="1.56"/><path class="cls-3" d="M418.29,525.79a1.57,1.57,0,1,0,1.56,1.57A1.56,1.56,0,0,0,418.29,525.79Z" transform="translate(-54.05 -79.63)"/><circle class="cls-3" cx="371.6" cy="447.72" r="1.56"/><circle class="cls-3" cx="378.97" cy="447.72" r="1.56"/><path class="cls-3" d="M440.38,525.79a1.57,1.57,0,1,0,1.57,1.57A1.56,1.56,0,0,0,440.38,525.79Z" transform="translate(-54.05 -79.63)"/><circle class="cls-3" cx="393.97" cy="446.66" r="1.56"/><path class="cls-3" d="M453.82,520.35a1.56,1.56,0,1,0,1.56,1.56A1.56,1.56,0,0,0,453.82,520.35Z" transform="translate(-54.05 -79.63)"/><path class="cls-3" d="M458.64,514.89a1.56,1.56,0,1,0,1.56,1.56A1.56,1.56,0,0,0,458.64,514.89Z" transform="translate(-54.05 -79.63)"/><path class="cls-3" d="M463.26,509.2a1.56,1.56,0,1,0,1.56,1.56A1.56,1.56,0,0,0,463.26,509.2Z" transform="translate(-54.05 -79.63)"/><path class="cls-3" d="M467.73,503.38a1.56,1.56,0,1,0,1.56,1.56A1.56,1.56,0,0,0,467.73,503.38Z" transform="translate(-54.05 -79.63)"/><path class="cls-3" d="M471.91,497.41a1.56,1.56,0,1,0,1.56,1.56A1.56,1.56,0,0,0,471.91,497.41Z" transform="translate(-54.05 -79.63)"/><path class="cls-3" d="M475.93,491.25a1.56,1.56,0,1,0,1.56,1.56A1.56,1.56,0,0,0,475.93,491.25Z" transform="translate(-54.05 -79.63)"/><path class="cls-3" d="M479.71,485a1.56,1.56,0,1,0,1.56,1.56A1.56,1.56,0,0,0,479.71,485Z" transform="translate(-54.05 -79.63)"/><path class="cls-3" d="M483.24,478.57a1.56,1.56,0,1,0,1.56,1.56A1.55,1.55,0,0,0,483.24,478.57Z" transform="translate(-54.05 -79.63)"/><circle class="cls-3" cx="432.49" cy="394" r="1.56"/><circle class="cls-3" cx="435.56" cy="387.32" r="1.56"/><path class="cls-3" d="M492.43,458.6a1.56,1.56,0,1,0,1.57,1.56A1.56,1.56,0,0,0,492.43,458.6Z" transform="translate(-54.05 -79.63)"/><path class="cls-3" d="M494.89,451.71a1.56,1.56,0,1,0,1.56,1.56A1.56,1.56,0,0,0,494.89,451.71Z" transform="translate(-54.05 -79.63)"/><circle class="cls-3" cx="443.22" cy="366.75" r="1.56"/><path class="cls-3" d="M499.31,437.76a1.56,1.56,0,1,0,1.56,1.56A1.56,1.56,0,0,0,499.31,437.76Z" transform="translate(-54.05 -79.63)"/><path class="cls-3" d="M501.1,430.68a1.57,1.57,0,1,0,1.56,1.56A1.56,1.56,0,0,0,501.1,430.68Z" transform="translate(-54.05 -79.63)"/><path class="cls-3" d="M502.62,423.52a1.56,1.56,0,1,0,1.56,1.56A1.56,1.56,0,0,0,502.62,423.52Z" transform="translate(-54.05 -79.63)"/><circle class="cls-3" cx="449.84" cy="338.23" r="1.56"/><path class="cls-3" d="M504.9,409a1.56,1.56,0,1,0,1.56,1.56A1.56,1.56,0,0,0,504.9,409Z" transform="translate(-54.05 -79.63)"/><path class="cls-3" d="M505.63,401.8a1.57,1.57,0,1,0,1.56,1.56A1.56,1.56,0,0,0,505.63,401.8Z" transform="translate(-54.05 -79.63)"/><path class="cls-3" d="M506.11,394.5a1.56,1.56,0,1,0,1.56,1.56A1.56,1.56,0,0,0,506.11,394.5Z" transform="translate(-54.05 -79.63)"/><path class="cls-3" d="M506.27,387.15a1.56,1.56,0,1,0,1.56,1.56A1.56,1.56,0,0,0,506.27,387.15Z" transform="translate(-54.05 -79.63)"/><circle class="cls-3" cx="451.83" cy="294.43" r="1.56"/><path class="cls-3" d="M506.2,379.82a1.56,1.56,0,1,0,1.56,1.56A1.56,1.56,0,0,0,506.2,379.82Z" transform="translate(-54.05 -79.63)"/><path class="cls-3" d="M503.79,366.78a1.56,1.56,0,1,0,1.56-1.56A1.56,1.56,0,0,0,503.79,366.78Z" transform="translate(-54.05 -79.63)"/><path class="cls-3" d="M502.89,359.49a1.56,1.56,0,1,0,1.56-1.56A1.56,1.56,0,0,0,502.89,359.49Z" transform="translate(-54.05 -79.63)"/><path class="cls-3" d="M501.8,352.27a1.56,1.56,0,1,0,1.56-1.56A1.56,1.56,0,0,0,501.8,352.27Z" transform="translate(-54.05 -79.63)"/><path class="cls-3" d="M500.38,345.09a1.56,1.56,0,1,0,1.56-1.56A1.56,1.56,0,0,0,500.38,345.09Z" transform="translate(-54.05 -79.63)"/><circle class="cls-3" cx="446.26" cy="258.31" r="1.56"/><circle class="cls-3" cx="444.32" cy="251.23" r="1.56"/><path class="cls-3" d="M494.64,323.88a1.56,1.56,0,1,0,1.56-1.56A1.56,1.56,0,0,0,494.64,323.88Z" transform="translate(-54.05 -79.63)"/><circle class="cls-3" cx="439.71" cy="237.29" r="1.56"/><path class="cls-3" d="M491.06,311.64a1.56,1.56,0,1,0-1.56-1.56A1.56,1.56,0,0,0,491.06,311.64Z" transform="translate(-54.05 -79.63)"/><path class="cls-3" d="M488.15,304.94a1.56,1.56,0,1,0-1.56-1.56A1.56,1.56,0,0,0,488.15,304.94Z" transform="translate(-54.05 -79.63)"/><path class="cls-3" d="M486.53,296.76a1.56,1.56,0,1,0-1.56,1.56A1.56,1.56,0,0,0,486.53,296.76Z" transform="translate(-54.05 -79.63)"/><path class="cls-3" d="M483.07,290.26a1.56,1.56,0,1,0-1.56,1.56A1.56,1.56,0,0,0,483.07,290.26Z" transform="translate(-54.05 -79.63)"/><path class="cls-3" d="M479.41,283.9a1.56,1.56,0,1,0-1.56,1.56A1.56,1.56,0,0,0,479.41,283.9Z" transform="translate(-54.05 -79.63)"/><path class="cls-3" d="M475.55,277.68a1.56,1.56,0,1,0-1.56,1.56A1.56,1.56,0,0,0,475.55,277.68Z" transform="translate(-54.05 -79.63)"/><circle class="cls-3" cx="411.46" cy="186.07" r="1.56"/><path class="cls-3" d="M471.44,271.61a1.56,1.56,0,1,0-1.56,1.56A1.56,1.56,0,0,0,471.44,271.61Z" transform="translate(-54.05 -79.63)"/><circle class="cls-3" cx="406.9" cy="180.32" r="1.56"/><path class="cls-3" d="M457.81,254.39a1.56,1.56,0,1,0-1.56,1.56A1.56,1.56,0,0,0,457.81,254.39Z" transform="translate(-54.05 -79.63)"/><circle class="cls-3" cx="392.12" cy="164.12" r="1.56"/><path class="cls-3" d="M452.9,249a1.56,1.56,0,1,0-1.56,1.56A1.56,1.56,0,0,0,452.9,249Z" transform="translate(-54.05 -79.63)"/><path class="cls-3" d="M440.85,237.17a1.56,1.56,0,1,0,1.56,1.56A1.56,1.56,0,0,0,440.85,237.17Z" transform="translate(-54.05 -79.63)"/><path class="cls-3" d="M435.32,232.32a1.56,1.56,0,1,0,1.56,1.56A1.56,1.56,0,0,0,435.32,232.32Z" transform="translate(-54.05 -79.63)"/><path class="cls-3" d="M429.66,227.69a1.56,1.56,0,1,0,1.56,1.56A1.56,1.56,0,0,0,429.66,227.69Z" transform="translate(-54.05 -79.63)"/><path class="cls-3" d="M425.4,224.85a1.57,1.57,0,1,0-1.56,1.56A1.56,1.56,0,0,0,425.4,224.85Z" transform="translate(-54.05 -79.63)"/><path class="cls-3" d="M417.84,222.19a1.56,1.56,0,1,0-1.56-1.56A1.56,1.56,0,0,0,417.84,222.19Z" transform="translate(-54.05 -79.63)"/><path class="cls-3" d="M411.7,215.12a1.56,1.56,0,1,0,1.56,1.56A1.55,1.55,0,0,0,411.7,215.12Z" transform="translate(-54.05 -79.63)"/><path class="cls-3" d="M405.41,211.36a1.56,1.56,0,1,0,1.56,1.56A1.56,1.56,0,0,0,405.41,211.36Z" transform="translate(-54.05 -79.63)"/><path class="cls-3" d="M399,207.85a1.57,1.57,0,1,0,1.56,1.56A1.56,1.56,0,0,0,399,207.85Z" transform="translate(-54.05 -79.63)"/><path class="cls-3" d="M392.45,204.56a1.57,1.57,0,1,0,1.56,1.57A1.56,1.56,0,0,0,392.45,204.56Z" transform="translate(-54.05 -79.63)"/><circle class="cls-3" cx="331.76" cy="123.45" r="1.56"/><path class="cls-3" d="M380.63,200.3a1.57,1.57,0,1,0-1.56,1.56A1.56,1.56,0,0,0,380.63,200.3Z" transform="translate(-54.05 -79.63)"/><path class="cls-3" d="M373.8,197.75a1.56,1.56,0,1,0-1.56,1.56A1.56,1.56,0,0,0,373.8,197.75Z" transform="translate(-54.05 -79.63)"/><circle class="cls-3" cx="311.22" cy="115.84" r="1.56"/><path class="cls-3" d="M359.79,193.44a1.56,1.56,0,1,0-1.56,1.56A1.56,1.56,0,0,0,359.79,193.44Z" transform="translate(-54.05 -79.63)"/><circle class="cls-3" cx="297.07" cy="112.04" r="1.56"/><path class="cls-3" d="M345.5,190.15a1.56,1.56,0,1,0-1.56,1.56A1.56,1.56,0,0,0,345.5,190.15Z" transform="translate(-54.05 -79.63)"/><path class="cls-3" d="M338.3,188.91a1.56,1.56,0,1,0-1.56,1.56A1.56,1.56,0,0,0,338.3,188.91Z" transform="translate(-54.05 -79.63)"/><path class="cls-3" d="M329.47,189.49a1.57,1.57,0,1,0-1.56-1.56A1.56,1.56,0,0,0,329.47,189.49Z" transform="translate(-54.05 -79.63)"/><path class="cls-3" d="M322.18,188.76a1.56,1.56,0,1,0-1.56-1.56A1.56,1.56,0,0,0,322.18,188.76Z" transform="translate(-54.05 -79.63)"/><path class="cls-3" d="M314.86,188.3a1.56,1.56,0,1,0-1.56-1.56A1.56,1.56,0,0,0,314.86,188.3Z" transform="translate(-54.05 -79.63)"/><path class="cls-3" d="M307.5,188.05a1.56,1.56,0,1,0-1.56-1.56A1.56,1.56,0,0,0,307.5,188.05Z" transform="translate(-54.05 -79.63)"/><path class="cls-3" d="M300.23,188.21a1.56,1.56,0,1,0-1.56-1.56A1.56,1.56,0,0,0,300.23,188.21Z" transform="translate(-54.05 -79.63)"/><path class="cls-3" d="M292.91,188.54a1.56,1.56,0,1,0-1.56-1.56A1.56,1.56,0,0,0,292.91,188.54Z" transform="translate(-54.05 -79.63)"/><circle class="cls-3" cx="231.57" cy="107.95" r="1.56"/><path class="cls-3" d="M278.36,190a1.56,1.56,0,1,0-1.57-1.56A1.56,1.56,0,0,0,278.36,190Z" transform="translate(-54.05 -79.63)"/><circle class="cls-3" cx="271.07" cy="189.6" r="1.56" transform="translate(-80.86 -33.89) rotate(-9.19)"/><path class="cls-3" d="M264,189.46a1.56,1.56,0,1,0,1.56,1.56A1.56,1.56,0,0,0,264,189.46Z" transform="translate(-54.05 -79.63)"/><path class="cls-3" d="M256.76,191.13a1.56,1.56,0,1,0,1.56,1.56A1.56,1.56,0,0,0,256.76,191.13Z" transform="translate(-54.05 -79.63)"/><path class="cls-3" d="M249.72,193a1.56,1.56,0,1,0,1.57,1.56A1.56,1.56,0,0,0,249.72,193Z" transform="translate(-54.05 -79.63)"/><path class="cls-3" d="M242.72,195.25a1.56,1.56,0,1,0,1.56,1.56A1.56,1.56,0,0,0,242.72,195.25Z" transform="translate(-54.05 -79.63)"/><circle class="cls-3" cx="181.74" cy="119.61" r="1.56"/><path class="cls-3" d="M229,200.37a1.56,1.56,0,1,0,1.56,1.56A1.56,1.56,0,0,0,229,200.37Z" transform="translate(-54.05 -79.63)"/><circle class="cls-3" cx="168.21" cy="125.27" r="1.56"/><path class="cls-3" d="M215.66,206.52a1.56,1.56,0,1,0,1.56,1.56A1.56,1.56,0,0,0,215.66,206.52Z" transform="translate(-54.05 -79.63)"/><circle class="cls-3" cx="155.14" cy="131.89" r="1.56"/><path class="cls-3" d="M204.39,215.2a1.56,1.56,0,1,0-1.56,1.56A1.56,1.56,0,0,0,204.39,215.2Z" transform="translate(-54.05 -79.63)"/><circle class="cls-3" cx="142.56" cy="139.47" r="1.56"/><path class="cls-3" d="M190.55,221.65a1.56,1.56,0,1,0,1.56,1.56A1.56,1.56,0,0,0,190.55,221.65Z" transform="translate(-54.05 -79.63)"/><path class="cls-3" d="M184.65,226a1.56,1.56,0,1,0,1.56,1.56A1.56,1.56,0,0,0,184.65,226Z" transform="translate(-54.05 -79.63)"/><path class="cls-3" d="M178.9,230.57a1.56,1.56,0,1,0,1.56,1.56A1.56,1.56,0,0,0,178.9,230.57Z" transform="translate(-54.05 -79.63)"/><circle class="cls-3" cx="119.3" cy="157.25" r="1.56"/><path class="cls-3" d="M167.91,240.3a1.57,1.57,0,1,0,1.56,1.57A1.56,1.56,0,0,0,167.91,240.3Z" transform="translate(-54.05 -79.63)"/><circle class="cls-3" cx="108.71" cy="167.36" r="1.56"/><path class="cls-3" d="M157.68,250.8a1.57,1.57,0,1,0,1.56,1.57A1.56,1.56,0,0,0,157.68,250.8Z" transform="translate(-54.05 -79.63)"/><circle class="cls-3" cx="152.88" cy="257.87" r="1.56" transform="translate(-93.26 -51.91) rotate(-9.19)"/><circle class="cls-3" cx="148.29" cy="263.55" r="1.56" transform="translate(-94.23 -52.57) rotate(-9.19)"/><path class="cls-3" d="M143.86,267.86a1.56,1.56,0,1,0,1.56,1.56A1.56,1.56,0,0,0,143.86,267.86Z" transform="translate(-54.05 -79.63)"/><path class="cls-3" d="M139.67,273.86a1.56,1.56,0,1,0,1.57,1.56A1.56,1.56,0,0,0,139.67,273.86Z" transform="translate(-54.05 -79.63)"/><path class="cls-3" d="M135.71,280a1.57,1.57,0,1,0,1.56,1.57A1.56,1.56,0,0,0,135.71,280Z" transform="translate(-54.05 -79.63)"/><circle class="cls-3" cx="77.95" cy="208.17" r="1.56"/><circle class="cls-3" cx="74.45" cy="214.55" r="1.56"/><path class="cls-3" d="M125.2,302.36a1.57,1.57,0,1,0-1.56-1.57A1.56,1.56,0,0,0,125.2,302.36Z" transform="translate(-54.05 -79.63)"/><path class="cls-3" d="M122.21,309a1.56,1.56,0,1,0-1.56-1.56A1.56,1.56,0,0,0,122.21,309Z" transform="translate(-54.05 -79.63)"/><circle class="cls-3" cx="65.36" cy="234.51" r="1.56"/><path class="cls-3" d="M116.89,322.63a1.56,1.56,0,1,0-1.56-1.56A1.56,1.56,0,0,0,116.89,322.63Z" transform="translate(-54.05 -79.63)"/><path class="cls-3" d="M114.63,329.56a1.56,1.56,0,1,0-1.56-1.56A1.56,1.56,0,0,0,114.63,329.56Z" transform="translate(-54.05 -79.63)"/><path class="cls-3" d="M112.59,336.58A1.56,1.56,0,1,0,111,335,1.56,1.56,0,0,0,112.59,336.58Z" transform="translate(-54.05 -79.63)"/><circle class="cls-3" cx="56.81" cy="262.56" r="1.56"/><path class="cls-3" d="M109.33,350.88a1.57,1.57,0,1,0-1.57-1.56A1.56,1.56,0,0,0,109.33,350.88Z" transform="translate(-54.05 -79.63)"/><circle class="cls-3" cx="54.08" cy="276.94" r="1.56"/><circle class="cls-3" cx="53.11" cy="284.18" r="1.56"/><path class="cls-3" d="M106.48,372.69a1.56,1.56,0,1,0-1.57-1.56A1.56,1.56,0,0,0,106.48,372.69Z" transform="translate(-54.05 -79.63)"/><circle class="cls-3" cx="51.97" cy="298.79" r="1.56"/><circle class="cls-3" cx="51.82" cy="306.14" r="1.56"/><path class="cls-3" d="M106,394.65a1.56,1.56,0,1,0-1.56-1.56A1.56,1.56,0,0,0,106,394.65Z" transform="translate(-54.05 -79.63)"/><circle class="cls-3" cx="52.27" cy="320.78" r="1.56"/><circle class="cls-3" cx="52.87" cy="328.06" r="1.56"/><path class="cls-3" d="M109.39,415a1.56,1.56,0,1,0-1.56,1.56A1.56,1.56,0,0,0,109.39,415Z" transform="translate(-54.05 -79.63)"/><circle class="cls-3" cx="54.9" cy="342.59" r="1.56"/><path class="cls-3" d="M112,429.44a1.56,1.56,0,1,0-1.56,1.56A1.56,1.56,0,0,0,112,429.44Z" transform="translate(-54.05 -79.63)"/><path class="cls-3" d="M113.66,436.56a1.56,1.56,0,1,0-1.56,1.56A1.56,1.56,0,0,0,113.66,436.56Z" transform="translate(-54.05 -79.63)"/><path class="cls-3" d="M115.6,443.62a1.56,1.56,0,1,0-1.56,1.57A1.56,1.56,0,0,0,115.6,443.62Z" transform="translate(-54.05 -79.63)"/><circle class="cls-3" cx="62.23" cy="370.98" r="1.56"/><path class="cls-3" d="M118.7,456a1.56,1.56,0,1,0,1.56,1.56A1.56,1.56,0,0,0,118.7,456Z" transform="translate(-54.05 -79.63)"/><circle class="cls-3" cx="67.36" cy="384.66" r="1.56"/><circle class="cls-3" cx="70.36" cy="391.42" r="1.56"/><path class="cls-3" d="M127.62,476.08a1.57,1.57,0,1,0,1.56,1.56A1.56,1.56,0,0,0,127.62,476.08Z" transform="translate(-54.05 -79.63)"/><path class="cls-3" d="M131,482.52a1.56,1.56,0,1,0,1.56,1.56A1.56,1.56,0,0,0,131,482.52Z" transform="translate(-54.05 -79.63)"/><path class="cls-3" d="M134.74,488.88a1.56,1.56,0,1,0,1.57,1.56A1.56,1.56,0,0,0,134.74,488.88Z" transform="translate(-54.05 -79.63)"/><path class="cls-3" d="M138.63,495.05a1.56,1.56,0,1,0,1.56,1.56A1.56,1.56,0,0,0,138.63,495.05Z" transform="translate(-54.05 -79.63)"/><circle class="cls-3" cx="88.74" cy="423.05" r="1.56"/><path class="cls-3" d="M147.16,507a1.56,1.56,0,1,0,1.57,1.56A1.56,1.56,0,0,0,147.16,507Z" transform="translate(-54.05 -79.63)"/><path class="cls-3" d="M151.73,512.73a1.56,1.56,0,1,0,1.56,1.56A1.56,1.56,0,0,0,151.73,512.73Z" transform="translate(-54.05 -79.63)"/><path class="cls-3" d="M156.48,518.27a1.57,1.57,0,1,0,1.56,1.57A1.57,1.57,0,0,0,156.48,518.27Z" transform="translate(-54.05 -79.63)"/><circle class="cls-3" cx="107.39" cy="445.58" r="1.56"/></g><path class="cls-4" d="M440,510.82a182.57,182.57,0,0,0-134-306.63c-100.84,0-182.58,81.75-182.58,182.59a181.91,181.91,0,0,0,48.62,124Z" transform="translate(-54.05 -79.63)"/><path class="cls-5" d="M434.61,317.62c-6.36-4.76-5.91-7.85,1.55-10.61-7.16-3.47-7.3-6.61-.52-10.79-7.7-2.06-8.46-5.16-2.66-10.66-8-.58-9.38-3.55-4.87-10.21-8,.92-10-1.7-6.82-9-7.55,2.61-10,.49-8.22-7.28-6.84,4.08-9.56,2.5-9.33-5.44-5.9,5.33-8.85,4.31-10.13-3.53-4.75,6.36-7.84,5.91-10.61-1.55-3.46,7.15-6.6,7.3-10.78.52-2.06,7.7-5.17,8.46-10.66,2.66-.58,8-3.56,9.39-10.22,4.87.93,8-1.69,10-9,6.82,2.6,7.55.49,9.95-7.29,8.22,4.09,6.84,2.51,9.56-5.44,9.33,5.34,5.9,4.31,8.85-3.53,10.13,6.37,4.75,5.92,7.84-1.54,10.61,7.15,3.46,7.3,6.6.52,10.79,7.69,2.05,8.46,5.16,2.66,10.65,8,.58,9.38,3.56,4.87,10.22,8-.93,10,1.69,6.81,9,7.56-2.61,9.95-.5,8.23,7.27,6.84-4.08,9.56-2.5,9.33,5.45,5.89-5.34,8.84-4.31,10.12,3.53,4.76-6.37,7.85-5.92,10.61,1.54,3.47-7.15,6.6-7.3,10.79-.52,2.06-7.69,5.16-8.46,10.66-2.66.58-8,3.55-9.38,10.21-4.87-.92-8,1.7-10,9-6.81-2.61-7.56-.49-10,7.28-8.23-4.08-6.84-2.5-9.56,5.44-9.33C425.75,321.84,426.77,318.9,434.61,317.62Zm-54.28,34.72a48,48,0,1,1,48-48A48,48,0,0,1,380.33,352.34Z" transform="translate(-54.05 -79.63)"/><path class="cls-5" d="M345.47,284.41a1.32,1.32,0,0,0-1.17-.12,2.18,2.18,0,0,0-.91,1l-.79,1.53,2.55,1.31.79-1.54a2,2,0,0,0,.26-1.32A1.28,1.28,0,0,0,345.47,284.41Z" transform="translate(-54.05 -79.63)"/><path class="cls-5" d="M350.29,287.75a1.74,1.74,0,0,0,0-.65,1.34,1.34,0,0,0-.29-.52,1.72,1.72,0,0,0-.51-.39,1.47,1.47,0,0,0-2.22.76l-.94,1.82,2.83,1.46.9-1.75A2.39,2.39,0,0,0,350.29,287.75Z" transform="translate(-54.05 -79.63)"/><path class="cls-5" d="M395.28,273.42a2.27,2.27,0,0,0,.81.68,2.1,2.1,0,0,0,2,0,4.54,4.54,0,0,0,1.77-2l.24-.47a6.43,6.43,0,0,0,.56-1.41,3.36,3.36,0,0,0,.08-1.2,2.1,2.1,0,0,0-.38-.95,2.37,2.37,0,0,0-.81-.68,2.29,2.29,0,0,0-1-.27,2,2,0,0,0-1,.24,3,3,0,0,0-.94.74,5.43,5.43,0,0,0-.85,1.26l-.25.47a6.54,6.54,0,0,0-.55,1.42,3.34,3.34,0,0,0-.07,1.2A2.26,2.26,0,0,0,395.28,273.42Z" transform="translate(-54.05 -79.63)"/><path class="cls-5" d="M347.87,324.48a1.34,1.34,0,0,0,.49,0,1.57,1.57,0,0,0,.91-.53,1.06,1.06,0,0,0,.23-.43,1.14,1.14,0,0,0,0-.52,2.07,2.07,0,0,0-.24-.61l-.69-1.19-2.24,1.3.69,1.19a1.87,1.87,0,0,0,.4.5A1.49,1.49,0,0,0,347.87,324.48Z" transform="translate(-54.05 -79.63)"/><path class="cls-5" d="M400.2,337.4a4.5,4.5,0,0,0-.65-.95,2.57,2.57,0,0,0-.71-.56,1.54,1.54,0,0,0-.75-.16,1.77,1.77,0,0,0-.78.22,1.69,1.69,0,0,0-.6.52,1.61,1.61,0,0,0-.27.72,2.36,2.36,0,0,0,.06.9,5.09,5.09,0,0,0,.43,1.07l.19.35a4.92,4.92,0,0,0,.66.95,2.43,2.43,0,0,0,.72.56,1.89,1.89,0,0,0,.6.15,1,1,0,0,0,1-.06,1,1,0,0,0,.51-.63,1.54,1.54,0,0,0,.3-.76,3.34,3.34,0,0,0-.52-2Z" transform="translate(-54.05 -79.63)"/><path class="cls-5" d="M344.35,318.21a1.18,1.18,0,0,0,.41.34,1,1,0,0,0,.48.11,1.65,1.65,0,0,0,.52-.1,1.61,1.61,0,0,0,.46-.26,1,1,0,0,0,.33-.39,1.34,1.34,0,0,0,.13-.54,1.82,1.82,0,0,0-.11-.66l-.55-1.52-2.53.91.54,1.52A2.17,2.17,0,0,0,344.35,318.21Z" transform="translate(-54.05 -79.63)"/><path class="cls-5" d="M386.32,340.25a1.32,1.32,0,0,0-.49-.24,1.52,1.52,0,0,0-.68,0l-1.59.2.33,2.67,1.6-.2a2.53,2.53,0,0,0,.65-.18,1.28,1.28,0,0,0,.42-.33,1.19,1.19,0,0,0,.21-.44,1.62,1.62,0,0,0,0-.54,1.78,1.78,0,0,0-.14-.5A1.27,1.27,0,0,0,386.32,340.25Z" transform="translate(-54.05 -79.63)"/><path class="cls-5" d="M406.2,333.47l-.25-.3a3,3,0,0,0-1.63-1.15,2,2,0,0,0-1.65.49l-.72.59,3.51,4.31.68-.55a2.4,2.4,0,0,0,.63-.74,1.76,1.76,0,0,0,.21-.83,2.28,2.28,0,0,0-.2-.89A3.94,3.94,0,0,0,406.2,333.47Z" transform="translate(-54.05 -79.63)"/><path class="cls-5" d="M392.82,338.91a1.09,1.09,0,0,0-.87-.43,2,2,0,0,0-.65.11L390,339l.78,2.47,1.31-.42a1.89,1.89,0,0,0,.57-.28,1.16,1.16,0,0,0,.35-.39,1.07,1.07,0,0,0,.14-.46,1.36,1.36,0,0,0-.07-.52A1.51,1.51,0,0,0,392.82,338.91Z" transform="translate(-54.05 -79.63)"/><path class="cls-5" d="M380.33,257.7A46.64,46.64,0,1,0,427,304.34,46.64,46.64,0,0,0,380.33,257.7Zm27.37,13.5-6.32,8-1.39-1.1,6.33-8ZM393.26,271a6.48,6.48,0,0,1,.69-2l.24-.46a6.5,6.5,0,0,1,1.24-1.71,4.46,4.46,0,0,1,1.5-1,3.63,3.63,0,0,1,1.63-.26,4,4,0,0,1,1.68.49,4.2,4.2,0,0,1,1.38,1.1,3.76,3.76,0,0,1,.72,1.49,4.46,4.46,0,0,1,0,1.79,6.48,6.48,0,0,1-.69,2l-.24.46a6.65,6.65,0,0,1-1.23,1.7,4.46,4.46,0,0,1-1.49,1,3.63,3.63,0,0,1-1.63.26,4.29,4.29,0,0,1-1.69-.49,4.36,4.36,0,0,1-1.36-1.1,3.78,3.78,0,0,1-.73-1.49A4.44,4.44,0,0,1,393.26,271Zm-8.2-9.59,1.73.36-.86,4.16,4.46.92.86-4.15,1.73.35-2.06,10-1.73-.36.92-4.43-4.47-.92-.91,4.43-1.74-.35Zm-11,3a4.29,4.29,0,0,1,.73-1.57,3.68,3.68,0,0,1,1.26-1.06,4.2,4.2,0,0,1,1.7-.46,4.68,4.68,0,0,1,1.63.16,3.45,3.45,0,0,1,1.23.65,3.42,3.42,0,0,1,.83,1.05,5.08,5.08,0,0,1,.45,1.38l-1.76.12a3.87,3.87,0,0,0-.25-.85,1.9,1.9,0,0,0-.43-.63,1.64,1.64,0,0,0-.66-.37,3.05,3.05,0,0,0-.94-.08,2.39,2.39,0,0,0-1,.3,2,2,0,0,0-.71.71,3,3,0,0,0-.38,1.09,6.06,6.06,0,0,0,0,1.44l0,.83a6.85,6.85,0,0,0,.23,1.38,3.12,3.12,0,0,0,.48,1,2,2,0,0,0,.76.64,2.2,2.2,0,0,0,1.08.17,3,3,0,0,0,.95-.19,1.74,1.74,0,0,0,.63-.44,1.75,1.75,0,0,0,.36-.66,3.75,3.75,0,0,0,.15-.88l1.76-.12a4.25,4.25,0,0,1-.26,1.4,3.29,3.29,0,0,1-.7,1.15,3.57,3.57,0,0,1-1.17.8,4.89,4.89,0,0,1-1.63.37,4.18,4.18,0,0,1-1.72-.23,3.48,3.48,0,0,1-1.35-.88,4.23,4.23,0,0,1-.92-1.46,6.42,6.42,0,0,1-.42-2l-.06-.82A6.51,6.51,0,0,1,374.05,264.39Zm-6.46-1.3.55,1.32-2.93,1.22,3.35,8.09-1.62.68-3.36-8.1-2.91,1.21-.54-1.32Zm-14.27,8.57a3.56,3.56,0,0,1,.58-1.15,5,5,0,0,1,1.06-1,4.82,4.82,0,0,1,1.39-.71,3.49,3.49,0,0,1,1.34-.14,3,3,0,0,1,1.17.37,3.09,3.09,0,0,1,.91.82l-1.42,1a2.05,2.05,0,0,0-.5-.48,1.37,1.37,0,0,0-.6-.22,1.57,1.57,0,0,0-.7.07,2.71,2.71,0,0,0-.77.4,2.93,2.93,0,0,0-.59.57,1.71,1.71,0,0,0-.29.57,1.18,1.18,0,0,0,0,.56,1.36,1.36,0,0,0,.24.52,1.12,1.12,0,0,0,1,.44,5.4,5.4,0,0,0,1.73-.4,9.88,9.88,0,0,1,1.54-.43,4.13,4.13,0,0,1,1.25-.05,2.33,2.33,0,0,1,1,.34,2.76,2.76,0,0,1,.81.76,2.67,2.67,0,0,1,.48,1.08,2.59,2.59,0,0,1-.07,1.14,3.32,3.32,0,0,1-.6,1.12,5.18,5.18,0,0,1-1.09,1,5.54,5.54,0,0,1-1.29.7,4.23,4.23,0,0,1-1.39.27,3.08,3.08,0,0,1-1.33-.27,2.86,2.86,0,0,1-1.11-.93l1.43-1a1.93,1.93,0,0,0,.62.57,1.82,1.82,0,0,0,.72.18,2.12,2.12,0,0,0,.76-.16,3.72,3.72,0,0,0,.76-.44,2.12,2.12,0,0,0,.9-1.12,1.22,1.22,0,0,0-.21-1.07,1.34,1.34,0,0,0-.4-.39,1.07,1.07,0,0,0-.53-.17,3.22,3.22,0,0,0-.76.08,9.28,9.28,0,0,0-1.11.34,12.14,12.14,0,0,1-1.38.39,4.9,4.9,0,0,1-1.24.1,2.78,2.78,0,0,1-1.07-.28,2.28,2.28,0,0,1-.85-.74,2.36,2.36,0,0,1-.46-1.07A2.85,2.85,0,0,1,353.32,271.66Zm-3.25,1.95,1.09.93L348,278.22l2.14,1.83,2.73-3.18,1.06.92L351.2,281l2.38,2,3.19-3.71,1.07.92-4.34,5.06-7.73-6.64Zm-7.95,11.06a6.67,6.67,0,0,1,.82-1.24,3.18,3.18,0,0,1,1-.76,2.23,2.23,0,0,1,1.08-.22,2.8,2.8,0,0,1,1.21.35,2.26,2.26,0,0,1,.95.91,2.48,2.48,0,0,1,.26,1.38,2.4,2.4,0,0,1,.66-.52,2.18,2.18,0,0,1,.72-.24,2.36,2.36,0,0,1,.75,0,2.84,2.84,0,0,1,.74.26,3.17,3.17,0,0,1,1,.81,2.34,2.34,0,0,1,.51,1.05,3.05,3.05,0,0,1,0,1.24,5.49,5.49,0,0,1-.51,1.41l-1.71,3.32-9.06-4.67Zm-.79,18.22,1.38-2.79,1.38,2.79,3.08.44-2.23,2.18.53,3.07-2.76-1.45L340,308.58l.53-3.07-2.23-2.18Zm-2,13.28,7.26-2.6,1,2.78a3.52,3.52,0,0,1,.23,1.18,2.32,2.32,0,0,1-.18,1,2.13,2.13,0,0,1-.55.78,2.46,2.46,0,0,1-.86.51,2.43,2.43,0,0,1-1,.16,2,2,0,0,1-.89-.26,2.58,2.58,0,0,1-.74-.67A4,4,0,0,1,343,318l-.54-1.51-2.7,1Zm5.74,12.26-.72-1.24,1.8-2.83-.75-1.29-2.57,1.49-.67-1.16,6.67-3.87,1.36,2.35a4,4,0,0,1,.46,1.1,2.36,2.36,0,0,1,.06,1,2,2,0,0,1-.36.83,2.6,2.6,0,0,1-.78.67,2.16,2.16,0,0,1-1.31.32,2.28,2.28,0,0,1-1.21-.5l-1.92,3.11Zm4.26,5.23-3.22-3.88,5.93-4.92,3.2,3.85-.83.69-2.34-2.82-1.64,1.36,2,2.43-.81.68-2-2.44-1.82,1.52,2.36,2.85Zm6.5,5.61,1.59-2,2.22-2.58-5.48,3.22-.75-.59,1.93-6.06-2,2.74-1.59,2-1-.83,4.81-6,1.36,1.09-1.95,6,5.42-3.23,1.36,1.08-4.82,6Zm3.18,1.94,3.76-6.73,1.16.65-3.75,6.73Zm8.68,2.43a2.46,2.46,0,0,1-1.92.67,3.71,3.71,0,0,1-1.1-.25,3.81,3.81,0,0,1-1-.58,2.68,2.68,0,0,1-.67-.8,2.34,2.34,0,0,1-.25-1,2.8,2.8,0,0,1,.22-1.16l1.89-4.8,1.24.49L364.2,341a2.19,2.19,0,0,0-.16.7,1.32,1.32,0,0,0,.11.57,1.17,1.17,0,0,0,.35.45,1.79,1.79,0,0,0,.56.32,1.92,1.92,0,0,0,.63.15,1.16,1.16,0,0,0,.56-.09,1.29,1.29,0,0,0,.47-.35,2,2,0,0,0,.36-.62l1.89-4.8,1.24.49-1.89,4.8A2.85,2.85,0,0,1,367.69,343.64ZM377.5,347l-1.32-.21.4-2.51.66-3.34-3.18,5.51-.95-.15-1.3-6.22-.41,3.37L371,346l-1.32-.21,1.22-7.61,1.71.27,1.27,6.19,3.12-5.49,1.71.27Zm-27-42.67a29.86,29.86,0,1,1,29.85,29.85A29.85,29.85,0,0,1,350.48,304.34ZM388.06,342a2,2,0,0,1-.45.81,2.63,2.63,0,0,1-.82.58,3.86,3.86,0,0,1-1.16.31l-1.6.2.36,2.85-1.33.17-1-7.65,2.93-.37a3.39,3.39,0,0,1,1.2,0,2.42,2.42,0,0,1,.94.39,2.21,2.21,0,0,1,.65.71,2.42,2.42,0,0,1,.3.94A2.68,2.68,0,0,1,388.06,342Zm6.83,2.39L392.52,342l-1.42.45.89,2.83-1.27.41-2.34-7.35,2.59-.82a4.39,4.39,0,0,1,1.17-.21,2.33,2.33,0,0,1,1,.16,1.92,1.92,0,0,1,.74.52,2.7,2.7,0,0,1,.48.91,2.13,2.13,0,0,1,0,1.34,2.36,2.36,0,0,1-.74,1.08l2.62,2.54,0,.07Zm7.22-4.44a2.69,2.69,0,0,1-.54,1.13,3.18,3.18,0,0,1-1,.85,3.4,3.4,0,0,1-1.26.39,3,3,0,0,1-1.25-.18,3.39,3.39,0,0,1-1.14-.73,4.76,4.76,0,0,1-1-1.27l-.18-.35a4.7,4.7,0,0,1-.54-1.5,3.4,3.4,0,0,1,0-1.35,2.73,2.73,0,0,1,.54-1.14,3.35,3.35,0,0,1,2.29-1.23,2.63,2.63,0,0,1,1.24.18,3.39,3.39,0,0,1,1.14.73,5.4,5.4,0,0,1,.95,1.28l.18.35a5,5,0,0,1,.55,1.49A3.59,3.59,0,0,1,402.11,340Zm5.66-3.39a3.71,3.71,0,0,1-1,1.12l-1.71,1.4-4.87-6,1.76-1.44a3.91,3.91,0,0,1,1.26-.69,3.3,3.3,0,0,1,1.32-.12,3.57,3.57,0,0,1,1.28.45,4.31,4.31,0,0,1,1.15,1l.24.3A4.29,4.29,0,0,1,408,334a3.34,3.34,0,0,1,.18,1.35A3.16,3.16,0,0,1,407.77,336.57Zm5.8-5.67a3.82,3.82,0,0,1-.6,1,3.88,3.88,0,0,1-.87.77,2.56,2.56,0,0,1-1,.37,2.21,2.21,0,0,1-1-.07,3.07,3.07,0,0,1-1-.58L405.14,329l.86-1,3.94,3.33a2.26,2.26,0,0,0,.61.37,1.35,1.35,0,0,0,.58.09,1.21,1.21,0,0,0,.54-.19,2.12,2.12,0,0,0,.48-.43,2,2,0,0,0,.35-.55,1.22,1.22,0,0,0,.09-.56,1.19,1.19,0,0,0-.18-.55,1.94,1.94,0,0,0-.47-.55L408,325.63l.86-1,3.94,3.32a2.94,2.94,0,0,1,.74.92,2.45,2.45,0,0,1,.24,1A2.67,2.67,0,0,1,413.57,330.9Zm4.41-6.79a3.7,3.7,0,0,1-.44,1.19,3.21,3.21,0,0,1-.86,1,2.74,2.74,0,0,1-1.12.49,3.18,3.18,0,0,1-1.3,0,4.73,4.73,0,0,1-1.42-.55l-.55-.31a4.82,4.82,0,0,1-1.2-.94,3.24,3.24,0,0,1-.69-1.12,2.82,2.82,0,0,1-.15-1.23,3.36,3.36,0,0,1,.43-1.27,3.28,3.28,0,0,1,.77-1,2.72,2.72,0,0,1,.92-.51,2.67,2.67,0,0,1,1-.09,3.46,3.46,0,0,1,1.05.3l-.65,1.16a3.18,3.18,0,0,0-.65-.2,1.36,1.36,0,0,0-.57,0,1.26,1.26,0,0,0-.51.27,2,2,0,0,0-.44.56,1.68,1.68,0,0,0-.24.78,1.39,1.39,0,0,0,.15.74,2.2,2.2,0,0,0,.53.69,4.63,4.63,0,0,0,.89.63l.55.32a5,5,0,0,0,1,.43,2.44,2.44,0,0,0,.86.12,1.51,1.51,0,0,0,.72-.21,1.75,1.75,0,0,0,.56-.61,2.33,2.33,0,0,0,.27-.69,1.22,1.22,0,0,0,0-.57,1.29,1.29,0,0,0-.27-.5,2.48,2.48,0,0,0-.5-.46l.66-1.17a3.49,3.49,0,0,1,.78.75,2.5,2.5,0,0,1,.43.92A2.56,2.56,0,0,1,418,324.11Zm2.28-4.93L414,317l-.8,2.24-1-.36,2-5.76,1,.36-.8,2.26,6.25,2.21Zm1.15-10.6-2.76-1.45-2.76,1.45.53-3.07-2.23-2.18,3.08-.44,1.38-2.79,1.38,2.79,3.08.44-2.23,2.18Zm-1.29-20.89-1.27.66-2.23-4.3-2.5,1.3,1.93,3.71-1.24.65L412.88,286l-2.78,1.45,2.26,4.34-1.26.65L408,286.53l9-4.71ZM414,278.85a3.33,3.33,0,0,1-.33,1.3,4.88,4.88,0,0,1-.83,1.2L411.69,280a3.61,3.61,0,0,0,.52-.72,1.8,1.8,0,0,0,.24-.72,1.65,1.65,0,0,0-.11-.75,2.77,2.77,0,0,0-.51-.79,2.25,2.25,0,0,0-.87-.64,2.06,2.06,0,0,0-1-.14,2.94,2.94,0,0,0-1.09.37,5.82,5.82,0,0,0-1.18.83l-.63.55a7.49,7.49,0,0,0-1,1,3.28,3.28,0,0,0-.53,1,2,2,0,0,0,0,1,2.07,2.07,0,0,0,.51.95,3.17,3.17,0,0,0,.74.64,1.75,1.75,0,0,0,.73.24,2,2,0,0,0,.74-.12,3.2,3.2,0,0,0,.79-.42l1.17,1.33a4.63,4.63,0,0,1-1.27.65,3.41,3.41,0,0,1-1.34.14,3.64,3.64,0,0,1-1.34-.44,4.7,4.7,0,0,1-1.29-1.08,4.13,4.13,0,0,1-.86-1.49,3.53,3.53,0,0,1-.13-1.61,4.33,4.33,0,0,1,.6-1.62,6.09,6.09,0,0,1,1.3-1.53l.63-.55a6.22,6.22,0,0,1,1.69-1.09,4.2,4.2,0,0,1,1.69-.37,3.63,3.63,0,0,1,1.61.35,4.13,4.13,0,0,1,1.4,1.07,4.46,4.46,0,0,1,.86,1.39A3.34,3.34,0,0,1,414,278.85Z" transform="translate(-54.05 -79.63)"/><path class="cls-5" d="M382.76,293.81V281.92h.07a.73.73,0,0,0,.73-.73v-.92a.73.73,0,0,0-.73-.73h-.13l.13-1.89a.75.75,0,0,0-.76-.8h-3.48a.74.74,0,0,0-.75.8l.12,1.89h-.12a.73.73,0,0,0-.73.73v.92a.73.73,0,0,0,.73.73h.07v11.89a7.33,7.33,0,0,0-4.91,6.92v28h0c0,.06,0,.13,0,.2v0a2.16,2.16,0,0,0,2.16,2.16H385.5a2.16,2.16,0,0,0,2.16-2.16v0a1.27,1.27,0,0,0,0-.2h0v-28A7.34,7.34,0,0,0,382.76,293.81Zm4.36,24.64H373.54V306.84h13.58Z" transform="translate(-54.05 -79.63)"/><polygon class="cls-5" points="326.1 229.28 326.1 230.72 326.46 230.72 326.46 229.26 328 230.66 328.24 230.4 326.46 228.78 326.46 228.41 326.1 228.41 326.1 228.8 324.34 230.4 324.58 230.66 326.1 229.28"/><path class="cls-5" d="M377.73,311.74a.85.85,0,1,0,0-1.7.85.85,0,1,0,0,1.7Z" transform="translate(-54.05 -79.63)"/><ellipse class="cls-5" cx="325.41" cy="231.26" rx="0.87" ry="0.85"/><path class="cls-5" d="M381.2,311.74a.85.85,0,1,0-.87-.85A.86.86,0,0,0,381.2,311.74Z" transform="translate(-54.05 -79.63)"/><path class="cls-5" d="M382.93,311.74a.85.85,0,1,0,0-1.7.85.85,0,1,0,0,1.7Z" transform="translate(-54.05 -79.63)"/><path class="cls-5" d="M378.6,311.58a.86.86,0,1,0,.87.85A.86.86,0,0,0,378.6,311.58Z" transform="translate(-54.05 -79.63)"/><path class="cls-5" d="M380.33,311.58a.86.86,0,1,0,0,1.71.86.86,0,1,0,0-1.71Z" transform="translate(-54.05 -79.63)"/><path class="cls-5" d="M382.07,311.58a.86.86,0,1,0,.86.85A.86.86,0,0,0,382.07,311.58Z" transform="translate(-54.05 -79.63)"/><path class="cls-5" d="M379.47,313.18a.86.86,0,1,0,0,1.71.86.86,0,1,0,0-1.71Z" transform="translate(-54.05 -79.63)"/><path class="cls-5" d="M381.2,313.18a.86.86,0,1,0,.87.86A.87.87,0,0,0,381.2,313.18Z" transform="translate(-54.05 -79.63)"/><path class="cls-5" d="M380.33,314.76a.85.85,0,1,0,0,1.7.85.85,0,1,0,0-1.7Z" transform="translate(-54.05 -79.63)"/><path class="cls-5" d="M376.05,359.51l-.3.7-.8-.35.62-1.42c-1-2-1.93-3-2.84-3s-2.24.69-4.67,3.94l-1.77,2.37-.48-2.92c-.63-3.85-1.64-5.8-3-5.8-.79,0-2.31.52-5.05,3l-2.18,2,.08-2.94a23.5,23.5,0,0,0-.1-2.79l-.13.28-.8-.34.7-1.61a3.38,3.38,0,0,0-.75-1.4,1.45,1.45,0,0,0-.86-.41l-13,30,15.9-2.51,8.67,13.16,11.8-27.22-.61-1.63C376.34,360.21,376.2,359.86,376.05,359.51Zm-31.82,16.74,1.06-2.46.81.35-.42,1,1-.19.16.86Zm3.2-5.2-.8-.34,1.34-3.09.8.35Zm3.21-9.6.8.35-1.34,3.08-.8-.34ZM350,375.22l-.16-.86,3.12-.56.16.86Zm2.78-16.51-.8-.34,1.34-3.09.8.35Zm5.87,16.43-.86-1.33-1.55.28-.16-.86,2.13-.38,1.17,1.82Zm3.22,5-1.61-2.5.73-.47,1.61,2.5Zm3.06,4.76-1.45-2.26.73-.47.58.89.42-1,.8.35Zm2.47-5.64-.8-.35,1.4-3.17.79.35Zm2.79-6.35-.8-.35,1.39-3.17.8.35Zm2.78-6.35-.8-.35,1.39-3.17.8.35Z" transform="translate(-54.05 -79.63)"/><path class="cls-5" d="M413,345.12a2.09,2.09,0,0,0-1.74.63,1,1,0,0,0-.12.17h0l.72,1.47-.79.38-.39-.8a14,14,0,0,0-.1,5l.32,2.72-2.27-1.54c-2.28-1.54-4.06-2.33-5.28-2.33-.69,0-2.52,0-3,6.25l-.21,2.84-2-2.06c-2.67-2.83-4.21-3.43-5-3.43a2.06,2.06,0,0,0-1.57.92l.69,1.4-.78.39-.46-.93c-.18.34-.33.67-.45,1s-.2.5-.3.75-.34.72-.28.85l16,32.72L414,378l16,1.8-16.88-34.62Zm-18.49,18.11-1.5-3.05.78-.38,1.5,3.05Zm3,6.11-1.5-3,.78-.39,1.5,3.05Zm3,6.1-1.5-3.05.78-.38,1.5,3.05Zm3,6.11-1.5-3.06.78-.38,1.5,3.05Zm2.68,5.45L405,384.6l.78-.39.47,1,.53-.92.76.45Zm2.85-4.84-.75-.44,1.49-2.54.75.44Zm5.38-6.29-1.59-.16-.8,1.37-.76-.44,1.09-1.85,2.14.21Zm6.19.61-3.1-.31.09-.86,3.1.3Zm3.19-.56,1.08.1-.48-1,.78-.38,1.17,2.38-2.64-.26Zm-1.58-7.31,1.48,3-.78.38-1.48-3Zm-3-6.06,1.48,3L420,366l-1.48-3Zm-3-6.06,1.48,3-.78.38-1.48-3Zm-1.48-3-.78.38-1.49-3,.79-.38Z" transform="translate(-54.05 -79.63)"/><path class="cls-6" d="M568.71,443.82c-22.15-14.83-43.79-22.93-70.23-26.28l-8.23,22a164.05,164.05,0,0,0,29.15,15.74l-6.76,18.07,2.07.78a6.08,6.08,0,0,0-3.16,3.43c-1,2.73.09,4.76.9,6.24s1.09,2.1.68,3.22-1.15,1.43-2.63,2-3.75,1.39-4.76,4.12.08,4.75.89,6.24,1.09,2.1.68,3.21-1.15,1.43-2.63,2-3.75,1.39-4.76,4.12.08,4.75.89,6.24,1.1,2.1.68,3.21-1.15,1.43-2.62,2-3.76,1.39-4.77,4.12.08,4.75.89,6.23,1.1,2.1.68,3.22l3.41,1.28c1-2.73-.08-4.76-.89-6.24s-1.1-2.1-.68-3.22,1.15-1.43,2.63-2,3.75-1.39,4.76-4.12-.08-4.75-.89-6.24-1.1-2.1-.68-3.21,1.15-1.43,2.63-2,3.75-1.4,4.76-4.12-.08-4.75-.89-6.24-1.1-2.1-.68-3.22,1.15-1.42,2.63-2,3.74-1.4,4.76-4.12-.08-4.76-.89-6.24-1.1-2.1-.68-3.22,1.15-1.43,2.62-2a12.94,12.94,0,0,0,2-.9l1.78.67,6.76-18.07a164.6,164.6,0,0,0,32.32,7.26Z" transform="translate(-54.05 -79.63)"/><rect class="cls-7" x="505.69" y="454.56" width="28.04" height="9.35" transform="translate(-146.51 705.56) rotate(-69.5)"/><path class="cls-7" d="M496.86,532.33l-3.42-1.28c.42-1.11.08-1.83-.68-3.21s-1.91-3.52-.89-6.24,3.19-3.53,4.77-4.12,2.21-.87,2.62-2,.08-1.83-.68-3.22-1.91-3.51-.89-6.24,3.19-3.53,4.77-4.12,2.21-.86,2.62-2,.08-1.82-.68-3.21-1.91-3.52-.89-6.24,3.19-3.53,4.77-4.12,2.21-.86,2.62-2,.08-1.83-.68-3.21-1.91-3.52-.89-6.24,3.18-3.53,4.77-4.12,2.2-.86,2.62-2l3.42,1.28c-1,2.72-3.19,3.53-4.77,4.12s-2.21.86-2.62,2-.08,1.83.67,3.21,1.92,3.52.9,6.24-3.19,3.53-4.77,4.12-2.21.86-2.62,2-.08,1.83.68,3.22,1.91,3.51.89,6.23-3.19,3.53-4.77,4.12-2.2.87-2.62,2-.08,1.83.68,3.22,1.91,3.51.89,6.23-3.19,3.54-4.77,4.12-2.2.87-2.62,2-.08,1.83.68,3.21S497.88,529.61,496.86,532.33Z" transform="translate(-54.05 -79.63)"/><path class="cls-8" d="M558.26,463.19c-26.45-3.35-48.09-11.44-70.23-26.28l8.22-22c26.45,3.35,48.09,11.44,70.24,26.27Z" transform="translate(-54.05 -79.63)"/><path class="cls-9" d="M537.67,442.41c.09-.23-1.16-1.45-1.16-1.45.6.12,1.12-.11,1.19-.34.13-.43-1.48-1.54-1.48-1.54a1.72,1.72,0,0,0,1.26-.24c.22-.25-2-1.62-2-1.62.38-.06,2.4-.66,2.43-1s-.15-.6-1.07-1a6.85,6.85,0,0,0-2.63-.25.06.06,0,0,0,0,0c-.05-.18,1.54-1.23,1.31-1.72s-2,.18-2.1.13,0-.47-.16-.51-.73.59-1,.48-.28-.7-.35-.5a3.29,3.29,0,0,1-1.4,1.61,3.79,3.79,0,0,1-1.43.34c.57-1.57,1.61-3.73,3-4.2l-.6-.55c-1,.34-1.72,1.76-2.55,3.63-.14.32-.25.63-.35.92a3.93,3.93,0,0,1-.8-1.16,3.19,3.19,0,0,1,0-2.13c.08-.2-.47.2-.6.15s-.19-1-.43-1-.33.3-.45.27-1.17-1.61-1.5-1.47,0,2-.14,2.15a8.94,8.94,0,0,0-2.18-1.5c-1-.31-1.29-.19-1.47.05s1,2,1.19,2.33c0,0-2.55-.41-2.56-.08s.47.8.8,1c0,0-2-.22-2.13.19-.09.22.14.73.67,1,0,0-1.73.1-1.82.33s.3.84.87,1.1c0,0-1.54.75-1.49,1.13s.68.47,1.65.65c0,0-.09.37.07.55a3,3,0,0,0,1.82-.13s-.39.57-.21.69c.38.27,2.54-1.32,3.22-.56.53.6-1.7,1.28-2.21,1.42,0,0-.07.15.17.21s-.71.72-.88.79.14.34.25.38-.81,1.28-.51,1.52,1-.3,1-.12-.8,2-.63,2.1,1.4-.57,1.35-.3-.44,1-.34,1.25.94-.16,1-.05-.46.93-.31,1.08.59,0,.64.21a2.84,2.84,0,0,0,1,1.68l.07,0h.06a3.8,3.8,0,0,0,1.89-.61c.17-.12.45.27.61.26s.35-1,.48-1,.49.84.74.71.42-.92.56-1.16.64,1.11.83,1.11.78-1.86.9-2,.43.75.69.76.51-1.52.61-1.48.52,0,.44-.12-.37-1.28-.15-1.17.27-.05.27-.05c-.29-.44-1.53-2.42-.74-2.52,1-.14,1.61,2.48,2.07,2.54.21,0,.29-.67.29-.67.24.51,1.05,1.31,1.29,1.29s.42-.36.42-.36c.84.5,1.42.8,1.66.59s-.38-1.83-.38-1.83A1.44,1.44,0,0,0,537.67,442.41Z" transform="translate(-54.05 -79.63)"/><g class="cls-10"><path class="cls-11" d="M184.53,265.2c.15-.21,3-3.71,2.83-5.83,0,0,0-.15,0-.18l-.09-.18c-1.23-2-5.23-1.94-5.48-2-.54-.16-.2-1.42-.5-1.74s-2.68,1-3,.74.94-2.47.23-2.76-2.65.69-3.4.81,1.25-3.24,1-3.63-5.26,1.53-5.74,1.52.82-2.17.41-2.73c-.61-.83-4.05,1.53-4.15,1.23s-.76-1.16-1-.7-2.05,2.95-2.21,2.3-.55-.48-.55-.48c-.43,1.37-2.46,7.33-4,5.85-2-1.9,2.48-7.6,1.81-8.65-.32-.5-1.9.53-1.9.53.66-1.39,1-4.45.51-4.91s-1.49-.26-1.49-.26c-.38-2.61-.75-4.35-1.59-4.49-1-.17-3.18,3.91-3.18,3.91-.66-1.56-2.37-2.63-2.91-2.45s-1,4.9-1,4.9c-.78-1.46-2.15-2.14-2.76-1.89-.24.09-.4.42-.52.85l-.71-.32c1.88-2.59,4.1-5.95,3.35-6.37-1.21-.68-4,0-5.49.88,0,0,4.93-6.87,3.78-8.4-.63-.84-3.06-1-5.32.33,0,0,3.29-6.75,2.6-7.56s-3.8-.63-6,.95c0,0,.42-7.35-1.12-8-1.26-.5-3.2,1.57-5.87,4.83,0,0-1.23-1.14-2.23-.87s-3.11,4.68-3.36,7.11c0,0-1.32-2-2.15-1.61-1.79.89-.36,11.69-4.65,12.63-3.36.74-1.23-9.06-.69-11.3,0,0-.4-.56-1.16.2s-1.19-4.15-1.12-5-1.55-.17-1.93.15-3.14-5.74-4.65-5.1c-1,.43-1,4.46-1.69,4.07s-5.71-7.14-6.58-6.8-.79,6.5-1.7,5.73-2.77-3.72-4-3.9-1.39,3.86-2,4-2.55-3.7-3.43-3.44c-.67.19-1.24,2.19-2.11,1.95-.4-.11-7.24-2.21-10.32-.77a1.34,1.34,0,0,0-.23.16,1.65,1.65,0,0,0-.22.23c-2.3,3,.2,8.89.25,9.3.09.89-2,1.13-2.28,1.76-.39.83,3,3.41,2.83,3.95s-4.2.06-4.22,1.28,2.59,3.53,3.2,4.57-5.53.06-5.94.73S76,247.26,76.3,248s-3.71.07-4.3,1c-.88,1.39,4.65,5.11,4.27,5.43s-1.27,1.81-.46,1.87,5.58,1.31,4.7,1.93-.38,1.1-.38,1.1c2.29-.16,12.31-.66,11,2.53-1.63,4.08-12.72.8-13.89,2.41-.54.76,1.9,2.5,1.9,2.5-2.44-.16-7.15,1.19-7.57,2.14s.49,2.35.49,2.35c-3.65,2.1-6,3.68-5.72,5,.35,1.62,7.67,2.4,7.67,2.4-1.92,1.91-2.5,5.07-1.92,5.76S80,283.07,80,283.07c-1.71,2-1.92,4.44-1.19,5.2,1.32,1.39,8.89-2.35,8.89-2.35-1.06,1.34-2.23,4-1.76,5.27s10.25-4,10.25-4c-.57,1.56-2.54,10.4-1.42,11.17s2.58.71,6-1.93a12.23,12.23,0,0,0,1.68-1.64,9.22,9.22,0,0,0,2.8.44,9.13,9.13,0,0,0,4.72-1.32,8.91,8.91,0,0,0,.52,1.1,8.92,8.92,0,0,0-5.24,8.09,9.1,9.1,0,1,0,9.09-8.94,9.63,9.63,0,0,0-1.95.21,47,47,0,0,0,2.25-5.85,9.07,9.07,0,1,0,8.8-11.16,9.18,9.18,0,0,0-5.46,1.79c-.11-.26-.21-.52-.31-.8a8.91,8.91,0,0,0,5.77-8.3,8.69,8.69,0,0,0-.8-3.64c.52-.07,1.08-.12,1.66-.14a8.73,8.73,0,0,0-.86,3.78,9.09,9.09,0,0,0,18.18,0,8.49,8.49,0,0,0,0-.88h.09a8.7,8.7,0,0,0,0,.89,8.93,8.93,0,0,0,5.62,8.25,7.53,7.53,0,0,1-.56.57,9.13,9.13,0,0,0-5.06-1.51,8.94,8.94,0,1,0,0,17.87,9.13,9.13,0,0,0,7.49-3.88,10.3,10.3,0,0,0,.56,2.9c1,2.53,1.79,3,2.6,3s2.65-5.43,2.85-6.46c0,0,3.51,6,4.2,5.49s.89-2.33.76-3.4c0,0,2.86,4.46,4,4.15.63-.18,1.3-1.55,1-3.18,0,0,3.17,3.47,3.8,3.26s1.25-2.07.83-3.71c0,0,4.19,1.94,4.9,1.19s-.17-2.23-1.45-4.54c0,0,.94-.45,1-1.1s-2-2.9-3.37-3.6c0,0,1.87-.15,1.82-.73-.1-1.25-7.12-3.07-6.67-5.79.35-2.12,5.57,1.38,6.75,2.21,0,0,.41-.1.15-.71s2.69.26,3.15.49.45-.86.35-1.16,4.08-.5,4-1.53c0-.69-2.36-1.63-2-1.93s6.28-1.9,6.29-2.49-4.41-1.73-3.75-2.09,2.81-.76,3.19-1.42-1.93-1.7-1.85-2.05,2.74-.63,2.8-1.21S184.19,265.65,184.53,265.2Z" transform="translate(-54.05 -79.63)"/><path class="cls-11" d="M132.54,312a8.94,8.94,0,1,0-9.09-8.93A9,9,0,0,0,132.54,312Z" transform="translate(-54.05 -79.63)"/><path class="cls-11" d="M123.45,310.65a8.94,8.94,0,1,0,9.09,8.93A9,9,0,0,0,123.45,310.65Z" transform="translate(-54.05 -79.63)"/></g><path class="cls-12" d="M69.9,281.79c-.58-.69,0-3.86,1.92-5.76,0,0-7.32-.79-7.67-2.4-.29-1.33,2.08-2.9,5.73-5,0,0-.92-1.39-.5-2.35S74.51,264,77,264.13c0,0-2.45-1.74-1.9-2.49,1.17-1.62,12.25,1.67,13.88-2.41,1.27-3.2-8.74-2.7-11-2.54,0,0-.49-.48.39-1.1s-3.9-1.86-4.71-1.92.09-1.56.47-1.88-5.15-4-4.27-5.43c.59-.93,4.57-.28,4.29-1s-6.11-6.79-5.63-7.61c.4-.67,6.55.3,5.93-.73s-3.21-3.35-3.19-4.57,4-.73,4.22-1.28-3.23-3.12-2.83-3.95c.3-.62,2.37-.86,2.27-1.76,0-.41-2.55-6.28-.25-9.3a2.49,2.49,0,0,1,.23-.23,2.29,2.29,0,0,1,.23-.16c3.08-1.44,9.92.66,10.31.78.87.24,1.45-1.77,2.11-2,.89-.25,2.88,3.53,3.44,3.44s.75-4.14,2-4,3.06,3.13,4,3.9,1-5.44,1.7-5.73,5.92,6.42,6.58,6.81.68-3.65,1.69-4.08c1.52-.64,4.28,5.43,4.66,5.11s2-1,1.92-.16.38,5.73,1.13,5,1.15-.2,1.15-.2c-.54,2.24-2.66,12,.69,11.31,4.29-.94,2.87-11.74,4.65-12.63.84-.42,2.15,1.61,2.15,1.61.25-2.44,2.35-6.86,3.36-7.12s2.23.87,2.23.87c2.68-3.26,4.62-5.33,5.88-4.83,1.53.62,1.11,8,1.11,8,2.19-1.59,5.41-1.64,6-1s-2.6,7.55-2.6,7.55c2.26-1.35,4.69-1.16,5.32-.32,1.15,1.53-3.78,8.39-3.78,8.39,1.5-.83,4.28-1.55,5.49-.87s-5.68,9.45-5.68,9.45c1.65-.31,10.69-.81,11.26.42s.28,2.67-2.89,5.61c-3,2.74-9.08,4.59-10.25,4.85,0,.06,0,.12,0,.19.06.8,8,2.74,7.79,5.05-.17,1.63-8.32,2.17-8.67,2.55s.54,2,.07,2.28-3.83-1.3-4.71-.51c-.43.38-.1,3.27-.71,2.55s-4.31-4.32-8-4.49c-2.75-.14-5.74.22-6.62.93l-.92.78c-.84.75-1.68,3.63-2,6.38-.43,3.65,2.51,7.89,3.12,8.61s-2.2-.09-2.63.28c-.9.78.73,4.45-.28,4.74-.54.15-1.79-.74-2.23-.45s-2.38,8.23-3.94,8.13c-1.21-.07-2.92-8.31-3.69-8.51-.08,0-3.47,6.8-6.66,9.27-3.42,2.65-4.93,2.66-6,1.93s.85-9.6,1.42-11.17c0,0-9.77,5.38-10.25,4.05s.7-3.93,1.76-5.28c0,0-7.58,3.74-8.9,2.35-.72-.76-.51-3.18,1.19-5.19C77.78,280.46,70.59,282.6,69.9,281.79Z" transform="translate(-54.05 -79.63)"/><path class="cls-12" d="M147.85,238.49c.53-.18,2.25.89,2.91,2.45,0,0,2.15-4.09,3.17-3.92.84.14,1.21,1.88,1.6,4.49,0,0,1-.21,1.48.26s.15,3.52-.5,4.91c0,0,1.58-1,1.89-.53.67,1.06-3.81,6.76-1.8,8.65,1.56,1.48,3.59-4.47,4-5.85,0,0,.39-.17.55.48s2-1.84,2.21-2.3.88.41,1,.71,3.55-2.07,4.16-1.24c.4.56-.89,2.73-.41,2.74s5.37-2,5.73-1.53-1.68,3.75-.94,3.63,2.69-1.1,3.4-.81-.5,2.53-.23,2.76,2.57-1.16,3-.73,0,1.58.5,1.73c.25.07,4.25,0,5.48,2l.08.19a.71.71,0,0,1,0,.17c.13,2.13-2.68,5.63-2.84,5.83-.34.45.7,1.25.66,1.68s-2.73.86-2.8,1.21,2.23,1.39,1.85,2.06-2.53,1.06-3.19,1.41,3.75,1.6,3.74,2.09-5.9,2.2-6.28,2.49,2,1.24,2,1.93c0,1-4.15,1.24-4,1.53s.1,1.39-.36,1.16-3.42-1.11-3.15-.49-.15.72-.15.72c-1.18-.83-6.4-4.34-6.75-2.21-.44,2.72,6.57,4.54,6.68,5.78.05.59-1.83.73-1.83.73,1.37.71,3.45,2.95,3.38,3.6s-1,1.1-1,1.1c1.28,2.31,2,3.92,1.46,4.54s-4.9-1.19-4.9-1.19c.42,1.64-.3,3.53-.83,3.71s-3.81-3.26-3.81-3.26c.27,1.63-.4,3-1,3.18-1.16.32-4-4.14-4-4.14.14,1.06-.08,2.85-.76,3.4s-4.19-5.5-4.19-5.5c-.2,1-2,6.42-2.85,6.47s-1.62-.46-2.6-3c-.92-2.36-.58-6.36-.46-7.1l-.12,0c-.48-.15-3.45,4-4.74,3.37-.91-.48.66-5.35.52-5.64s-1.27-.14-1.35-.49,1.65-1.93,1.39-2.63c-.13-.33-1.88-.81-1.32-1s3.51-1.52,4.46-3.62c.72-1.57,1.2-3.4,1-4.07l-.24-.72c-.24-.67-1.73-1.82-3.26-2.64-2-1.1-5.18-.36-5.74-.17s.56-1.26.44-1.6c-.24-.7-2.76-.6-2.69-1.26,0-.35.84-.87.77-1.19s-4.24-3.3-3.83-4.18c.33-.69,5.53.22,5.82-.19,0,0-3.16-3.59-3.86-6-.75-2.61-.41-3.49.26-3.95s5.4,2.72,6.18,3.42c0,0-.87-6.94,0-6.91s2.13,1.31,2.67,2.24c0,0-.43-5.28.69-5.73.61-.25,2,.44,2.75,1.9C146.8,243.39,147.22,238.7,147.85,238.49Z" transform="translate(-54.05 -79.63)"/><path class="cls-13" d="M139.4,267.39a9.1,9.1,0,1,0,9.1-8.93A9,9,0,0,0,139.4,267.39Z" transform="translate(-54.05 -79.63)"/><path class="cls-14" d="M121.22,267.39a9.09,9.09,0,1,0,9.09-8.93A9,9,0,0,0,121.22,267.39Z" transform="translate(-54.05 -79.63)"/><path class="cls-15" d="M103,267.39a9.1,9.1,0,1,0,9.1-8.93A9,9,0,0,0,103,267.39Z" transform="translate(-54.05 -79.63)"/><path class="cls-13" d="M84.85,267.39a9.09,9.09,0,1,0,9.09-8.93A9,9,0,0,0,84.85,267.39Z" transform="translate(-54.05 -79.63)"/><path class="cls-15" d="M130.31,283.63a9.1,9.1,0,1,0,9.09-8.93A9,9,0,0,0,130.31,283.63Z" transform="translate(-54.05 -79.63)"/><path class="cls-13" d="M112.13,283.63a9.09,9.09,0,1,0,9.09-8.93A9,9,0,0,0,112.13,283.63Z" transform="translate(-54.05 -79.63)"/><path class="cls-14" d="M93.94,283.63A9.1,9.1,0,1,0,103,274.7,9,9,0,0,0,93.94,283.63Z" transform="translate(-54.05 -79.63)"/><path class="cls-15" d="M130.31,250.3a9.1,9.1,0,1,0,9.09-8.93A9,9,0,0,0,130.31,250.3Z" transform="translate(-54.05 -79.63)"/><path class="cls-13" d="M112.13,250.3a9.09,9.09,0,1,0,9.09-8.93A9,9,0,0,0,112.13,250.3Z" transform="translate(-54.05 -79.63)"/><path class="cls-14" d="M93.94,250.3a9.1,9.1,0,1,0,9.09-8.93A9,9,0,0,0,93.94,250.3Z" transform="translate(-54.05 -79.63)"/><path class="cls-14" d="M121.22,300.44a9.09,9.09,0,1,0,9.09-8.93A9,9,0,0,0,121.22,300.44Z" transform="translate(-54.05 -79.63)"/><path class="cls-15" d="M103,300.44a9.1,9.1,0,1,0,9.1-8.93A9,9,0,0,0,103,300.44Z" transform="translate(-54.05 -79.63)"/><path class="cls-14" d="M112.13,317a9.09,9.09,0,1,0,9.09-8.94A9,9,0,0,0,112.13,317Z" transform="translate(-54.05 -79.63)"/><g class="cls-10"><path class="cls-11" d="M342.89,169.35v0c-4.2-2.23-10.8-4-18.78-5l-2.6-.25v-6.27c7.12-4.14,12.6-11.57,15-20.63a8,8,0,0,0,4.2-7.32,9.38,9.38,0,0,0-.4-2.62,38.26,38.26,0,0,0,2.13-12.52c0-20-10.55-32.48-33.84-32.48-21.45,0-33.85,12.53-33.85,32.48a38,38,0,0,0,2.14,12.52,9,9,0,0,0-.41,2.62,7.94,7.94,0,0,0,4.2,7.31c2.37,9.07,7.85,16.49,15,20.64v6.27l-.21,0-2.4.23c-7.95,1-14.53,2.79-18.73,5h0s-.28.15-.75.43q-.46.27-.87.54c-3.11,2-10.29,7.39-17.32,17.85a71.44,71.44,0,0,0,106.48,0C352.5,174.3,342.89,169.35,342.89,169.35ZM309,168.15h0l12.42-4Z" transform="translate(-54.05 -79.63)"/><path class="cls-11" d="M269,154.29c1.65-5.89-1.54-11.86-.3-15.63l-9.08-2.54-9.09-2.53c-.9,3.87-6.71,7.31-8.36,13.21-2.55,9.16,4.45,11.63,7.06,15.46a5.94,5.94,0,0,1,.88,2.54,10.27,10.27,0,0,1-.49,3.09l-3.31,11.85a22.08,22.08,0,0,1-1.08,3.34c-.44.64-6.45.34-6.68,1.15l7.08,2,7.08,2c.23-.81-5.07-3.66-5.11-4.44a20.94,20.94,0,0,1,.8-3.41l3.31-11.85a10.19,10.19,0,0,1,1.18-2.9,5.85,5.85,0,0,1,2.07-1.72C259.18,161.94,266.46,163.45,269,154.29Z" transform="translate(-54.05 -79.63)"/><path class="cls-11" d="M371.48,183.39a21.49,21.49,0,0,1-.94-3.37l-2.81-12a10.16,10.16,0,0,1-.35-3.11,5.76,5.76,0,0,1,1-2.5c2.76-3.72,9.87-5.89,7.7-15.15-1.4-6-7.06-9.65-7.8-13.55l-9.18,2.15L349.9,138c1.07,3.82-2.36,9.65-1,15.61,2.16,9.25,9.49,8.05,13.63,10.15a5.79,5.79,0,0,1,2,1.8,10.45,10.45,0,0,1,1.06,2.94l2.81,12a22.12,22.12,0,0,1,.65,3.44c-.07.78-5.49,3.4-5.29,4.22l7.15-1.67,7.16-1.68C377.91,184,371.89,184.06,371.48,183.39Z" transform="translate(-54.05 -79.63)"/></g><path class="cls-8" d="M276.46,121.41l0,0s1.13-29.3,10.93-29.79a16.21,16.21,0,0,1,4.53.55c3.19-2.73,8.34-3.89,9.39-4.41.87-.43,11.55-2.9,13.44-2.71l-1.51,3c1.81.63,5.93,1.81,8.65,4.13a16.26,16.26,0,0,1,4.53-.55c9.81.49,10.93,29.79,10.93,29.79s-.13.4-.32,1a8.27,8.27,0,0,1,1,2.23,38.06,38.06,0,0,0,2.14-12.53c0-20-10.56-32.48-33.84-32.48-21.46,0-33.86,12.53-33.86,32.48a38.06,38.06,0,0,0,2.14,12.53A8,8,0,0,1,276.46,121.41Z" transform="translate(-54.05 -79.63)"/><path class="cls-16" d="M319.27,155.2c7.12-4.14,12.61-11.57,15-20.63a5.68,5.68,0,0,1-2.41.56c-3.67,0-6.64-3.52-6.64-7.88,0-4,2.51-7.23,5.75-7.74.11-3,.23-5.42.15-6.23-1-10-5.16-13.5-11.9-14.29-2.38-.27-22.25-.27-24.63,0-6.74.79-10.92,4.31-11.9,14.29-.08.84.05,3.44.16,6.52a7.79,7.79,0,0,1,4.63,7.45c0,4.36-3,7.88-6.62,7.88a5.69,5.69,0,0,1-2.42-.56c2.36,9.06,7.85,16.49,15,20.63a25.12,25.12,0,0,0,25.88,0Z" transform="translate(-54.05 -79.63)"/><path class="cls-16" d="M280.84,135.13c3.66,0,6.62-3.52,6.62-7.88a7.79,7.79,0,0,0-4.63-7.45c.17,5,.26,11.38-.86,13.39-1.25,2.25-5.44-11.5-5.51-11.78a8,8,0,0,0-1.84,3.23,8.91,8.91,0,0,0-.41,2.61,8,8,0,0,0,4.21,7.32A5.69,5.69,0,0,0,280.84,135.13Z" transform="translate(-54.05 -79.63)"/><path class="cls-16" d="M331.8,133.19c-1.13-2-1-8.6-.85-13.68-3.24.51-5.75,3.76-5.75,7.74,0,4.36,3,7.88,6.64,7.88a5.68,5.68,0,0,0,2.41-.56,8,8,0,0,0,4.2-7.32,8.91,8.91,0,0,0-.41-2.61,8.27,8.27,0,0,0-1-2.23C336,125.58,332.86,135.09,331.8,133.19Z" transform="translate(-54.05 -79.63)"/><path class="cls-8" d="M331.8,133.19c1.06,1.9,4.2-7.61,5.21-10.78.19-.62.32-1,.32-1s-1.12-29.3-10.93-29.79a16.26,16.26,0,0,0-4.53.55c-2.72-2.32-6.84-3.5-8.65-4.13l1.51-3c-1.89-.19-12.57,2.28-13.44,2.71-1.05.52-6.2,1.68-9.39,4.41a16.21,16.21,0,0,0-4.53-.55c-9.8.49-10.93,29.79-10.93,29.79l0,0c.07.28,4.26,14,5.51,11.78,1.12-2,1-8.34.86-13.39-.11-3.08-.24-5.68-.16-6.52,1-10,5.16-13.5,11.9-14.29,2.38-.27,22.25-.27,24.63,0,6.74.79,10.92,4.31,11.9,14.29.08.81,0,3.27-.15,6.23C330.77,124.59,330.67,131.15,331.8,133.19Z" transform="translate(-54.05 -79.63)"/><path class="cls-17" d="M271.3,167.17l.75-.43h0Z" transform="translate(-54.05 -79.63)"/><path class="cls-17" d="M270.44,167.71c-3.12,2-10.29,7.38-17.33,17.85a72.3,72.3,0,0,0,13.25,11.55l.7-24.69C267.06,170.74,268.28,169.15,270.44,167.71Z" transform="translate(-54.05 -79.63)"/><path class="cls-17" d="M340.66,166.73v0c3.14,1.67,4.94,3.6,4.94,5.65l.7,24.72a72,72,0,0,0,13.3-11.58C350.28,171.68,340.66,166.73,340.66,166.73Z" transform="translate(-54.05 -79.63)"/><path class="cls-18" d="M293.19,161.49l-2.41.24Z" transform="translate(-54.05 -79.63)"/><path class="cls-19" d="M306.34,158.79a25.56,25.56,0,0,1-12.95-3.59v6.28h0l13.18,4.05h.22l12.43-4h0V155.2A25.48,25.48,0,0,1,306.34,158.79Z" transform="translate(-54.05 -79.63)"/><path class="cls-3" d="M346.3,197.14l-.7-24.72c0-2-1.8-4-4.94-5.65-4.2-2.24-10.8-4-18.78-5l-2.61-.25,1.82,5.25-10.53-.85c.81.5,1,1.48.34,2.62l-1.23,2.13L312.18,196H300.49L303,170.61l-1.21-2.11c-.63-1.09-.48-2,.23-2.55l-9.7.78,1.09-5.25h-.2l-2.41.24c-7.94,1-14.52,2.79-18.73,5l-.75.43c-.3.17-.59.35-.86.54-2.16,1.44-3.38,3-3.38,4.71l-.7,24.69a71.6,71.6,0,0,0,79.94,0Z" transform="translate(-54.05 -79.63)"/><path class="cls-14" d="M308,173.44c-.94,1.63-2.48,1.63-3.42,0L303,170.61,300.49,196h11.69l-2.51-25.32Z" transform="translate(-54.05 -79.63)"/><polygon class="cls-20" points="252.64 85.94 252.75 85.9 252.53 85.9 252.64 85.94"/><path class="cls-20" d="M302,166c-.71.51-.86,1.46-.23,2.55l1.21,2.11,1.64,2.83c.94,1.63,2.48,1.63,3.42,0l1.63-2.81,1.23-2.13c.66-1.14.47-2.12-.34-2.62l-3.86-.31Z" transform="translate(-54.05 -79.63)"/><polygon class="cls-17" points="252.53 85.9 239.34 81.84 239.34 81.84 238.25 87.1 247.95 86.32 252.64 85.94 252.53 85.9"/><polygon class="cls-17" points="252.75 85.9 252.64 85.94 256.51 86.25 267.04 87.1 265.22 81.84 265.18 81.86 252.75 85.9"/><path class="cls-3" d="M252.74,161.25c4.22-1.93,11.49-.42,14.05-9.58,1.64-5.89-1.54-11.85-.31-15.63l-9.08-2.54L248.32,131c-.9,3.87-6.72,7.32-8.36,13.21-2.56,9.16,4.45,11.63,7,15.47a5.59,5.59,0,0,1,.88,2.54,10,10,0,0,1-.48,3.08l-3.31,11.86a21.16,21.16,0,0,1-1.09,3.33c-.43.65-6.45.34-6.68,1.15l7.09,2,7.08,2c.23-.82-5.08-3.66-5.12-4.45a22.34,22.34,0,0,1,.8-3.41l3.31-11.85a10.34,10.34,0,0,1,1.19-2.9A5.76,5.76,0,0,1,252.74,161.25Z" transform="translate(-54.05 -79.63)"/><path class="cls-21" d="M244.81,156.3a20.52,20.52,0,0,1,2.77,3c1.21,1.74,4.3,1.63,4.88,1.37a17.78,17.78,0,0,1,3.9-1.1c3.93-.82,8-1.66,9.77-8a16.72,16.72,0,0,0,.23-6.69H240.5C239,150.88,241.94,153.63,244.81,156.3Z" transform="translate(-54.05 -79.63)"/><path class="cls-3" d="M366.13,159.82c2.77-3.72,9.87-5.9,7.71-15.16-1.4-5.95-7.07-9.64-7.8-13.55l-9.18,2.15-9.19,2.15c1.08,3.83-2.36,9.65-1,15.61,2.17,9.25,9.5,8,13.63,10.15a5.81,5.81,0,0,1,2,1.8,10.29,10.29,0,0,1,1.07,2.95l2.81,12a22.12,22.12,0,0,1,.65,3.44c-.08.78-5.49,3.4-5.3,4.23l7.16-1.68,7.16-1.68c-.2-.82-6.21-.77-6.63-1.43a21.79,21.79,0,0,1-.94-3.37l-2.81-12a10.07,10.07,0,0,1-.35-3.1A5.7,5.7,0,0,1,366.13,159.82Z" transform="translate(-54.05 -79.63)"/><path class="cls-22" d="M356.8,159.3a18.5,18.5,0,0,1,3.85,1.27c.56.28,3.34,1.06,4.94-1.16a16.59,16.59,0,0,1,2.89-2.84c3-2.61,6.2-5.3,4.69-11.75v0H347.32a16.07,16.07,0,0,0,.05,6.06C348.88,157.32,352.91,158.33,356.8,159.3Z" transform="translate(-54.05 -79.63)"/><path class="cls-6" d="M554.05,255.88s-1-7.8-2.75-9.85c-.87-1-4.2-1.41-4.9,3-.43,2.74.32,8.22.32,8.22l-1.14,7.26-.16-7.29s-1-7.8-2.75-9.84c-.87-1-4.2-1.42-4.9,3-.44,2.74.32,8.22.32,8.22l-1.2,7.6-.23.41-.07-3.23s-.9-6.76-2.39-8.53c-.75-.89-3.64-1.23-4.25,2.62a34.13,34.13,0,0,0,.29,7.12l-.68,4.31a6.83,6.83,0,0,0-.67-2.27c-.55-.86-3-1.5-4,1.77-.58,1.88-1.78,9.5-1.94,10.51-.54.5-1.09,1-1.68,1.47-.27.21-.55.41-.84.61.28-.74.54-1.48.8-2.22h0c.25-.75.5-1.49.73-2.24a.75.75,0,0,0,0-.16,104,104,0,0,0,0-63.35v0c-.25-.79-.51-1.58-.78-2.36a.43.43,0,0,0,0-.05c-.27-.79-.55-1.56-.84-2.35h0c-.5-1.36-1-2.71-1.58-4.05h0v-1.88H462.16v1.88c-.55,1.34-1.07,2.69-1.57,4.05h0c-.29.79-.57,1.56-.84,2.35a.43.43,0,0,0,0,.05c-.27.78-.54,1.57-.78,2.36,0,0,0,0,0,0a104,104,0,0,0,0,63.35h0a.75.75,0,0,0,.05.16c.24.75.48,1.49.74,2.24h0c.26.74.52,1.48.8,2.23-.29-.21-.57-.41-.84-.62-.59-.47-1.14-1-1.69-1.47-.15-1-1.36-8.63-1.93-10.51-1-3.27-3.46-2.63-4-1.77a6.54,6.54,0,0,0-.67,2.26l-.68-4.3a33.65,33.65,0,0,0,.28-7.12c-.61-3.85-3.49-3.51-4.24-2.62-1.49,1.77-2.39,8.53-2.39,8.53l-.07,3.23-.24-.41-1.2-7.6s.76-5.48.33-8.22c-.7-4.44-4-4.05-4.9-3-1.72,2-2.75,9.84-2.75,9.84l-.16,7.29-1.15-7.26s.76-5.48.32-8.22c-.7-4.44-4-4.05-4.9-3-1.71,2.05-2.75,9.85-2.75,9.85s-.58,9.93.3,13.28c2,7.34,11.64,21.23,14.85,27.2l.25.57c5.3,7.35,12.43,10.34,19.84,15.24l.76.58c.26,1.33.37,16.35.4,27.46h24.17V310s0-5.29-1.28-7.74a26.53,26.53,0,0,0-7.77-11.83,24.06,24.06,0,0,0-5.29-3.3h34.69a24.37,24.37,0,0,0-5.3,3.3,26.53,26.53,0,0,0-7.77,11.85c-1.25,2.44-1.27,7.72-1.27,7.72v30.22h24.17c0-11.31.14-26.14.4-27.46l.76-.59c7.4-4.89,14.54-7.88,19.84-15.23l.24-.57c3.21-6,12.91-19.86,14.85-27.2C554.64,265.81,554.05,255.88,554.05,255.88Z" transform="translate(-54.05 -79.63)"/><path class="cls-23" d="M432.34,246.44c.43,2.74-.32,8.22-.32,8.22l1.2,7.6,4.9,8.2,5.31,4.59-3.24,19.35c-2.8-5.55-13.18-20.24-15.2-27.86-.89-3.35-.3-13.28-.3-13.28s1-7.8,2.75-9.84C428.31,242.39,431.64,242,432.34,246.44Z" transform="translate(-54.05 -79.63)"/><path class="cls-23" d="M436.07,244.79c.87-1,4.21-1.42,4.9,3,.43,2.74-.32,8.21-.32,8.21l1.2,7.6.24.41.07-3.23s.89-6.76,2.38-8.53c.75-.89,3.64-1.22,4.25,2.63a34.07,34.07,0,0,1-.29,7.11l1,6.59,4.25,7.1,1.21,1.12c2.7,5.33,10.07,10.23,13.59,13a65.51,65.51,0,0,1,6.56,5.63L464.36,313,440.19,294.4l1.29-9.17c-2.56-5.18-8.46-16.72-8.46-16.72l.3-13.88S434.36,246.83,436.07,244.79Z" transform="translate(-54.05 -79.63)"/><path class="cls-23" d="M453.51,275.53c-1.5-.57-3-1.29-4.47-1.83l-.22-1.95s-.05-6,1-7.69c.55-.86,3-1.5,4,1.77.61,2,1.95,10.62,1.95,10.62C454.9,276.06,454.1,275.75,453.51,275.53Z" transform="translate(-54.05 -79.63)"/><path class="cls-23" d="M478.19,302.56c.44,1.2,6.29-1.44,6.06-2.15a27,27,0,0,0-8-12.61c-5-4.32-13.63-5.92-18.74-10a51.72,51.72,0,0,1-7.36-7.72c-1.61-1.92-2.75-3.71-5.29-4.21a2,2,0,0,0-2.27,2.05c.41,2.64,2.24,4.14,3.89,6.16a51.3,51.3,0,0,0,5.53,6.16c4.62,4.07,10.48,6.08,15.38,9.74C471.75,293.27,476.27,297.26,478.19,302.56Z" transform="translate(-54.05 -79.63)"/><path class="cls-24" d="M435.32,283.23h0l4.76,11.08c5.48,7.59,12.9,10.53,20.57,15.72.29.19.41,16,.43,27.56h24.17V307.37s0-5.39-1.3-7.8a18.52,18.52,0,0,0-6.55-6.67c-7.52-4.78-29.13-8.09-29.13-8.09s-4-7-5-9.25c-3.43-7.64-6.81-8.44-9.21-7.42-2.12.91-3.41,3.94-1.89,7.7C433.28,278.59,435.32,283.23,435.32,283.23Z" transform="translate(-54.05 -79.63)"/><path class="cls-25" d="M433.53,276.07s-2.77-5.86,1.08-7.26c2.85-1,6,3.74,5.89,3.92S433.53,276.07,433.53,276.07Z" transform="translate(-54.05 -79.63)"/><path class="cls-23" d="M544.18,246.44c-.44,2.74.32,8.22.32,8.22l-1.2,7.6-4.91,8.2-5.31,4.59,3.25,19.35c2.79-5.55,13.18-20.24,15.19-27.86.89-3.35.3-13.28.3-13.28s-1-7.8-2.74-9.84C548.21,242.39,544.88,242,544.18,246.44Z" transform="translate(-54.05 -79.63)"/><path class="cls-23" d="M540.45,244.79c-.88-1-4.21-1.42-4.91,3-.43,2.74.33,8.21.33,8.21l-1.2,7.6-.24.41-.07-3.23s-.9-6.76-2.38-8.53c-.75-.89-3.65-1.22-4.25,2.63A33.59,33.59,0,0,0,528,262l-1,6.59-4.25,7.1-1.22,1.12c-2.69,5.33-10.07,10.23-13.58,13a64.41,64.41,0,0,0-6.56,5.63L512.15,313l24.18-18.56L535,285.23c2.56-5.18,8.46-16.72,8.46-16.72l-.31-13.88S542.16,246.83,540.45,244.79Z" transform="translate(-54.05 -79.63)"/><path class="cls-23" d="M523,275.53c1.5-.57,3-1.29,4.47-1.83l.22-1.95s0-6-1-7.69c-.54-.86-3-1.5-4,1.77-.61,2-1.95,10.62-1.95,10.62C521.62,276.06,522.42,275.75,523,275.53Z" transform="translate(-54.05 -79.63)"/><path class="cls-23" d="M498.32,302.56c-.43,1.2-6.28-1.44-6.06-2.15a27,27,0,0,1,8.05-12.61c5-4.32,13.62-5.92,18.73-10a51.28,51.28,0,0,0,7.37-7.72c1.61-1.92,2.74-3.71,5.29-4.21a1.94,1.94,0,0,1,2.26,2.05c-.4,2.64-2.23,4.14-3.89,6.16a50.38,50.38,0,0,1-5.52,6.16c-4.62,4.07-10.49,6.08-15.38,9.74C504.76,293.27,500.25,297.26,498.32,302.56Z" transform="translate(-54.05 -79.63)"/><path class="cls-24" d="M515.44,337.59c0-11.78.15-27.37.43-27.56,7.66-5.19,15.09-8.13,20.57-15.72l4.75-11.08h0s2-4.64,3.15-7.39c1.52-3.76.23-6.79-1.9-7.7-2.39-1-5.77-.22-9.2,7.42-1,2.28-5,9.25-5,9.25s-21.62,3.31-29.14,8.09a18.39,18.39,0,0,0-6.54,6.67c-1.28,2.41-1.31,7.8-1.31,7.8v30.22Z" transform="translate(-54.05 -79.63)"/><path class="cls-25" d="M543,276.07s2.77-5.86-1.08-7.26c-2.84-1-6,3.74-5.88,3.92S543,276.07,543,276.07Z" transform="translate(-54.05 -79.63)"/><path class="cls-8" d="M519.79,210.44h0v0c-.24-.79-.5-1.58-.77-2.36l0-.05c-.27-.78-.54-1.56-.83-2.34h0c-.5-1.36-1-2.7-1.58-4H459.94c-.56,1.35-1.08,2.69-1.57,4h0c-.29.78-.56,1.56-.84,2.34,0,0,0,0,0,.05-.27.78-.53,1.57-.78,2.36v0h0a104,104,0,0,0,0,63.35h0q.38,1.21.78,2.4h0q.41,1.19.84,2.37h0c.49,1.36,1,2.7,1.57,4h56.64c.56-1.34,1.08-2.68,1.58-4h0q.44-1.19.84-2.37h0c.28-.79.54-1.59.79-2.4h0A104,104,0,0,0,519.79,210.44Z" transform="translate(-54.05 -79.63)"/><path class="cls-8" d="M510.67,210.44c-.36-1.61-.75-3.2-1.17-4.78-.35-1.36-.72-2.7-1.11-4H495.12c.14,1.35.27,2.69.38,4,.15,1.58.28,3.17.4,4.78a420,420,0,0,1,0,63.35c-.12,1.61-.25,3.2-.39,4.79-.12,1.36-.24,2.7-.38,4h13.29c.39-1.34.76-2.68,1.11-4,.42-1.59.8-3.18,1.16-4.79A144.83,144.83,0,0,0,510.67,210.44Z" transform="translate(-54.05 -79.63)"/><path class="cls-26" d="M519.79,273.79a104,104,0,0,0,0-63.35h0v0c-.24-.79-.5-1.58-.77-2.36l0-.05c-.27-.78-.54-1.56-.83-2.34h0c-.5-1.36-1-2.7-1.58-4h-8.19c.39,1.35.76,2.69,1.11,4,.42,1.58.81,3.17,1.17,4.78a144.83,144.83,0,0,1,0,63.35c-.36,1.61-.74,3.2-1.16,4.79-.35,1.36-.72,2.7-1.11,4h8.16c.56-1.34,1.08-2.68,1.58-4h0q.44-1.19.84-2.37h0c.26-.75.5-1.49.74-2.24,0-.05,0-.1,0-.16Z" transform="translate(-54.05 -79.63)"/><path class="cls-8" d="M480.61,273.79a420,420,0,0,1,0-63.35c.12-1.61.25-3.2.39-4.78.12-1.36.25-2.7.38-4H468.13c-.39,1.35-.76,2.69-1.12,4-.42,1.58-.8,3.17-1.16,4.78a144.83,144.83,0,0,0,0,63.35c.35,1.61.74,3.2,1.16,4.79.35,1.36.72,2.7,1.11,4h13.28c-.13-1.34-.25-2.68-.38-4C480.86,277,480.73,275.4,480.61,273.79Z" transform="translate(-54.05 -79.63)"/><path class="cls-26" d="M465.83,273.79a144.83,144.83,0,0,1,0-63.35c.36-1.61.74-3.2,1.16-4.78.36-1.36.73-2.7,1.12-4h-8.19c-.56,1.35-1.08,2.69-1.57,4h0c-.29.78-.56,1.56-.84,2.34,0,0,0,0,0,.05-.27.78-.53,1.57-.78,2.36v0h0a104,104,0,0,0,0,63.35h0a.75.75,0,0,0,0,.16c.24.75.48,1.49.73,2.24h0q.41,1.19.84,2.37h0c.49,1.36,1,2.7,1.57,4h8.16c-.39-1.34-.76-2.68-1.11-4C466.57,277,466.18,275.4,465.83,273.79Z" transform="translate(-54.05 -79.63)"/><path class="cls-26" d="M495.9,210.44c-.12-1.61-.25-3.2-.4-4.78-.11-1.36-.24-2.7-.38-4H481.39c-.13,1.35-.26,2.69-.38,4-.14,1.58-.27,3.17-.39,4.78a420,420,0,0,0,0,63.35c.12,1.61.25,3.2.39,4.79.13,1.36.25,2.7.38,4h13.75c.14-1.34.26-2.68.38-4,.14-1.59.27-3.18.39-4.79A420,420,0,0,0,495.9,210.44Z" transform="translate(-54.05 -79.63)"/><path class="cls-7" d="M510.69,273.79h-54q.38,1.21.78,2.4h0q.41,1.19.84,2.37h59.8q.44-1.19.84-2.37h0c.28-.79.54-1.59.79-2.4Z" transform="translate(-54.05 -79.63)"/><path class="cls-7" d="M465.85,210.44h53.94v0c-.24-.79-.5-1.58-.77-2.36l0-.05c-.27-.78-.54-1.56-.83-2.34h-59.8c-.29.78-.56,1.56-.84,2.34,0,0,0,0,0,.05-.27.78-.53,1.57-.78,2.36v0Z" transform="translate(-54.05 -79.63)"/><path class="cls-27" d="M504,242.12a15.53,15.53,0,1,0-15.53,15.53A15.53,15.53,0,0,0,504,242.12Z" transform="translate(-54.05 -79.63)"/><path class="cls-7" d="M503.15,242.12a14.65,14.65,0,1,0-14.65,14.65A14.65,14.65,0,0,0,503.15,242.12Z" transform="translate(-54.05 -79.63)"/><polygon class="cls-8" points="438.75 156.13 434.62 152.36 434.62 151.5 433.8 151.5 433.8 152.41 429.71 156.13 430.26 156.74 433.8 153.51 433.8 156.86 434.62 156.86 434.62 153.47 438.2 156.74 438.75 156.13"/><path class="cls-13" d="M484.24,240.17a2,2,0,1,1-2-2A2,2,0,0,1,484.24,240.17Z" transform="translate(-54.05 -79.63)"/><path class="cls-14" d="M488.26,240.17a2,2,0,1,1-2-2A2,2,0,0,1,488.26,240.17Z" transform="translate(-54.05 -79.63)"/><path class="cls-15" d="M492.28,240.17a2,2,0,1,1-2-2A2,2,0,0,1,492.28,240.17Z" transform="translate(-54.05 -79.63)"/><path class="cls-13" d="M496.3,240.17a2,2,0,1,1-2-2A2,2,0,0,1,496.3,240.17Z" transform="translate(-54.05 -79.63)"/><path class="cls-15" d="M486.25,243.76a2,2,0,1,1-2-2A2,2,0,0,1,486.25,243.76Z" transform="translate(-54.05 -79.63)"/><path class="cls-13" d="M490.27,243.76a2,2,0,1,1-2-2A2,2,0,0,1,490.27,243.76Z" transform="translate(-54.05 -79.63)"/><path class="cls-14" d="M494.29,243.76a2,2,0,1,1-2-2A2,2,0,0,1,494.29,243.76Z" transform="translate(-54.05 -79.63)"/><path class="cls-15" d="M486.25,236.4a2,2,0,1,1-2-2A2,2,0,0,1,486.25,236.4Z" transform="translate(-54.05 -79.63)"/><path class="cls-13" d="M490.27,236.4a2,2,0,1,1-2-2A2,2,0,0,1,490.27,236.4Z" transform="translate(-54.05 -79.63)"/><path class="cls-14" d="M494.29,236.4a2,2,0,1,1-2-2A2,2,0,0,1,494.29,236.4Z" transform="translate(-54.05 -79.63)"/><path class="cls-14" d="M488.26,247.47a2,2,0,1,1-2-2A2,2,0,0,1,488.26,247.47Z" transform="translate(-54.05 -79.63)"/><path class="cls-15" d="M492.28,247.47a2,2,0,1,1-2-2A2,2,0,0,1,492.28,247.47Z" transform="translate(-54.05 -79.63)"/><path class="cls-14" d="M490.27,251.13a2,2,0,1,1-2-2A2,2,0,0,1,490.27,251.13Z" transform="translate(-54.05 -79.63)"/><rect class="cls-27" x="405.89" y="120.1" width="56.62" height="1.88"/><rect class="cls-27" x="405.89" y="202.99" width="56.62" height="1.89"/><g class="cls-10"><path class="cls-28" d="M130.12,461.59a7.92,7.92,0,0,1,2.11,3,14,14,0,0,1,.5,4.29v12.14a30.05,30.05,0,0,1-.2,4.82c-.34,1-8.44,2.85-8.44,4h20.28c0-1.16-8.1-3-8.45-4a30.05,30.05,0,0,1-.2-4.82V468.92a14.14,14.14,0,0,1,.51-4.29,7.81,7.81,0,0,1,2.11-3c4.88-4.13,16.66-8.61,16.66-22.2,0-11.4-7.24-19.15-8.2-21.25H121.66c-1,2.1-7.49,9.85-7.49,21.25C114.17,453,125.24,457.46,130.12,461.59Z" transform="translate(-54.05 -79.63)"/><path class="cls-28" d="M176.4,495.12c-5.84-3.46-12.16-5.66-19.5-5.29-8.14.41-17.18,6.33-25.19,7.05-.92.09-1.84.12-2.75.14-1-.75-8.56-6.54-10.68-7.73-3.66-2.07-5.31.6-5.06,1.84a8.16,8.16,0,0,0,1.33,2.59l-4.27-3.26s-3.46-4.79-5.82-6.58c-3.81-2.91-6.1-.16-6,1.28.18,2.83,5.14,9.62,5.14,9.62l2.69,2.94-.57-.15-7.53-5.76s-4-5.52-6.71-7.59c-4.41-3.37-7-.19-6.94,1.48.21,3.28,5.93,11.1,5.93,11.1l6.1,6.67-7.24-5.53s-4-5.52-6.71-7.59c-4.41-3.36-7-.18-7,1.48.22,3.28,6,11.11,6,11.11l11.55,12.61s27.67,7.61,36.29,10.49l.82.35.14,0,0,0,37.33-4.06v-.05l9.84-1,18.28,4.4a75.83,75.83,0,0,0,7.47-11.91,95.1,95.1,0,0,0,4.5-10.73C200.78,501,187.09,497.33,176.4,495.12Z" transform="translate(-54.05 -79.63)"/></g><path class="cls-29" d="M127.9,459c-4.89-4.13-16-8.6-16-22.2,0-11.39,6.52-19.15,7.49-21.25h25.13c1,2.1,8.2,9.86,8.2,21.25,0,13.6-11.78,18.07-16.66,22.2a7.89,7.89,0,0,0-2.11,3,14.14,14.14,0,0,0-.51,4.29v12.14a30.24,30.24,0,0,0,.21,4.82c.35,1,8.45,2.85,8.45,4H121.87c0-1.16,8.09-3,8.44-4a30,30,0,0,0,.2-4.82V466.3A14.34,14.34,0,0,0,130,462,8.11,8.11,0,0,0,127.9,459Z" transform="translate(-54.05 -79.63)"/><path class="cls-3" d="M127.9,459c-4.89-4.13-16-8.6-16-22.2,0-11.39,6.52-19.15,7.49-21.25h25.13c1,2.1,8.2,9.86,8.2,21.25,0,13.6-11.78,18.07-16.66,22.2a7.89,7.89,0,0,0-2.11,3,14.14,14.14,0,0,0-.51,4.29v12.14a30.24,30.24,0,0,0,.21,4.82c.35,1,8.45,2.85,8.45,4H121.87c0-1.16,8.09-3,8.44-4a30,30,0,0,0,.2-4.82V466.3A14.34,14.34,0,0,0,130,462,8.11,8.11,0,0,0,127.9,459Z" transform="translate(-54.05 -79.63)"/><path class="cls-21" d="M139.19,455.59a13.78,13.78,0,0,1-7.39,2.46,12.23,12.23,0,0,1-6.68-2.31c-5.44-3.77-12.22-8.45-12.22-19a30.27,30.27,0,0,1,1.93-10.49h34.86a27.5,27.5,0,0,1,2.13,10.49C151.82,447.13,144.52,452,139.19,455.59Z" transform="translate(-54.05 -79.63)"/><path class="cls-23" d="M80.38,487.73c2.72,2.08,6.72,7.59,6.72,7.59l7.53,5.76L106,504.2l8.64-.44,13.59,20c-7.21-2.55-37.29-10.82-37.29-10.82L79.39,500.32s-5.73-7.82-6-11.11C73.34,487.55,76,484.37,80.38,487.73Z" transform="translate(-54.05 -79.63)"/><path class="cls-23" d="M82.3,483.08c-.1-1.66,2.54-4.85,6.94-1.48C92,483.68,96,489.19,96,489.19l7.54,5.76.57.16-2.69-2.94s-5-6.79-5.15-9.63c-.09-1.43,2.21-4.19,6-1.28,2.35,1.79,5.82,6.58,5.82,6.58l6.52,5,9.83,2.7,2,0c7,2.45,17.68.53,23.17,0a78.53,78.53,0,0,1,10.62-.57l5.32,24.77-37.34,4.06-6.67-9.27c-6.68-2.43-21.77-7.68-21.77-7.68L88.24,494.18S82.51,486.36,82.3,483.08Z" transform="translate(-54.05 -79.63)"/><path class="cls-23" d="M124,495.61c-1.82.77-3.74,1.38-5.54,2.17l-1.85-1.54s-5.13-5.28-5.63-7.73c-.25-1.24,1.41-3.9,5.07-1.84,2.26,1.28,10.78,7.81,10.78,7.81C125.71,494.9,124.72,495.31,124,495.61Z" transform="translate(-54.05 -79.63)"/><path class="cls-23" d="M108.05,494.41c2.69-1.72,5.24-1.09,8.3-.75a63.52,63.52,0,0,0,13.14.6c8-.72,17-6.64,25.19-7.05,14-.71,24.34,7.93,34.68,16.94-.09.29-.17.6-.25.9a10.13,10.13,0,0,1-2.11,3.3,3.16,3.16,0,0,0-1.89.23c-5.54-2.92-10.45-7.12-16.09-9.91-6.23-3.09-13.64-2.79-20.37-2-7.47.91-14.41,4.11-22,4.42a61.88,61.88,0,0,1-10.17-.78c-3.19-.39-6.1-.17-8.71-2.18A2.39,2.39,0,0,1,108.05,494.41Z" transform="translate(-54.05 -79.63)"/><path class="cls-24" d="M100.4,505.59c1.26-2.95,5-5.12,14.52-1.23,2.85,1.15,12.33,4,12.33,4s22.07-15.45,32.84-17.59c5.44-1.09,34.11,6.34,45.54,9.65a93.08,93.08,0,0,1-4.5,10.73A76.37,76.37,0,0,1,193.67,523l-18.29-4.4s-44.46,4.57-47.33,5.14L114.38,518h0s-5.79-2.4-9.11-3.9C100.71,512,99.28,508.21,100.4,505.59Z" transform="translate(-54.05 -79.63)"/><path class="cls-25" d="M106.68,513.11s-7.46-2.87-5.22-7.39c1.65-3.34,8.53-1.79,8.58-1.52S106.68,513.11,106.68,513.11Z" transform="translate(-54.05 -79.63)"/><g class="cls-10"><path class="cls-11" d="M276.64,265.61h22.52c.09-.35.17-2.47.17-2.86V251.93a3.81,3.81,0,0,0-3.51-4.05h-18.2a3.8,3.8,0,0,0-3.5,4.05v10.82c0,.39.07,2.51.15,2.86Z" transform="translate(-54.05 -79.63)"/><path class="cls-11" d="M451.26,460.91c-11.26-5.41-23.34-4-28.32,2.9a40.82,40.82,0,0,1-4.66-6.37,47.59,47.59,0,0,0,3-6.89,267.2,267.2,0,0,1,32.24.81c-7.69-3.58-18.87-4.95-31-5.08,2.19-8.64,2.88-20.35-1.23-35.17l-67.17-33.57-28.71,26V341.78c0-9.67-22.56-22.47-26-32.17-2-5.6-2.51-22.81-2.65-44H276.64c-.14,21.19-.66,38.4-2.65,44a22.59,22.59,0,0,1-4.89,7.09c-3.91-9.16-22.19-20.28-25.27-28.95-2-5.59-2.5-22.8-2.65-44h2.37c.09-.35.17-2.47.17-2.86V230.08a3.81,3.81,0,0,0-3.51-4.05H222a3.8,3.8,0,0,0-3.51,4.05V240.9c0,.39.07,2.51.16,2.86H221c-.15,21.19-.66,38.4-2.65,44-3.45,9.72-26,22.52-26,32.17V427.31a15,15,0,0,0,.71,5H248v16.89a14.88,14.88,0,0,0,.71,4.95h21.06l-.52.47L301.89,473a8.76,8.76,0,0,1,11.61-1.91c-2.11,5.32-1.95,12.22,1.88,20.77,11.42,25.45,35.3,32.45,56.9,23.59a50.45,50.45,0,0,0,13.91-8.51c4.6,7.05,11.43,11,17.84,9.44,9.12-2.22,13.92-14.65,10.74-27.78-2.33-9.62-8.31-16.93-14.92-19.28l-.09-.49,13.68-4.33a27.86,27.86,0,0,0,3.24-4.28,38.06,38.06,0,0,0,4.84,6.27c-3.27,8.36,3.24,19.4,15,25.07,12.18,5.85,25.35,3.74,29.4-4.69S463.45,466.77,451.26,460.91Z" transform="translate(-54.05 -79.63)"/></g><path class="cls-12" d="M267.63,381.3v43.39a14.7,14.7,0,0,1-.72,5h-38V381.3Z" transform="translate(-54.05 -79.63)"/><path class="cls-12" d="M228.88,429.65h-38a15,15,0,0,1-.71-5V381.3h38.75Z" transform="translate(-54.05 -79.63)"/><path class="cls-12" d="M228.88,241.14H239c.14,21.2.66,38.4,2.65,44,3.45,9.72,26,22.52,26,32.18v18.41H228.88Z" transform="translate(-54.05 -79.63)"/><path class="cls-12" d="M216.15,285.13c2-5.59,2.51-22.79,2.65-44h10.08v94.58H190.13V317.31C190.13,307.65,212.71,294.85,216.15,285.13Z" transform="translate(-54.05 -79.63)"/><rect class="cls-7" x="174.83" y="256.09" width="38.75" height="45.59"/><rect class="cls-3" x="136.08" y="256.09" width="38.75" height="45.59"/><path class="cls-7" d="M238,223.41h-9.1v17.73h12.45c.09-.35.16-2.47.16-2.86V227.46A3.81,3.81,0,0,0,238,223.41Z" transform="translate(-54.05 -79.63)"/><path class="cls-3" d="M219.78,223.41a3.8,3.8,0,0,0-3.5,4.05v10.82c0,.39.07,2.51.15,2.86h12.45V223.41Z" transform="translate(-54.05 -79.63)"/><path class="cls-30" d="M323.24,403.15v43.39a15,15,0,0,1-.71,5h-38V403.15Z" transform="translate(-54.05 -79.63)"/><path class="cls-30" d="M284.49,451.5h-38a15,15,0,0,1-.72-5V403.15h38.75Z" transform="translate(-54.05 -79.63)"/><path class="cls-30" d="M284.49,263h10.08c.15,21.19.67,38.41,2.65,44,3.45,9.71,26,22.51,26,32.17v18.4H284.49Z" transform="translate(-54.05 -79.63)"/><path class="cls-30" d="M271.77,307c2-5.59,2.5-22.81,2.65-44h10.07v94.57H245.74v-18.4C245.74,329.5,268.32,316.7,271.77,307Z" transform="translate(-54.05 -79.63)"/><rect class="cls-7" x="230.44" y="277.93" width="38.75" height="45.59"/><rect class="cls-3" x="191.69" y="277.93" width="38.75" height="45.59"/><path class="cls-7" d="M293.59,245.27h-9.1V263h12.45c.09-.35.17-2.46.17-2.86V249.32A3.81,3.81,0,0,0,293.59,245.27Z" transform="translate(-54.05 -79.63)"/><path class="cls-3" d="M275.39,245.27a3.8,3.8,0,0,0-3.5,4v10.81c0,.4.07,2.51.15,2.86h12.45V245.27Z" transform="translate(-54.05 -79.63)"/><path class="cls-31" d="M352,374.92,267,452l32.66,18.38a8.8,8.8,0,0,1,15.68,5.51,8.68,8.68,0,0,1-.56,3l15.44,8.68,88.89-79Z" transform="translate(-54.05 -79.63)"/><path class="cls-32" d="M330.22,487.52l81-25.68s17.78-17.78,7.9-53.34Z" transform="translate(-54.05 -79.63)"/><path class="cls-32" d="M339.7,431.22A11.25,11.25,0,1,1,328.45,420,11.25,11.25,0,0,1,339.7,431.22Z" transform="translate(-54.05 -79.63)"/><path class="cls-32" d="M400.54,408.54a7.95,7.95,0,1,1-7.94-8A8,8,0,0,1,400.54,408.54Z" transform="translate(-54.05 -79.63)"/><path class="cls-32" d="M371.66,423.74a7.26,7.26,0,1,1-7.26-7.25A7.25,7.25,0,0,1,371.66,423.74Z" transform="translate(-54.05 -79.63)"/><path class="cls-32" d="M396.88,439.28a7.26,7.26,0,1,1-7.26-7.25A7.26,7.26,0,0,1,396.88,439.28Z" transform="translate(-54.05 -79.63)"/><path class="cls-32" d="M326.08,460.16a4.22,4.22,0,1,1-4.21-4.21A4.2,4.2,0,0,1,326.08,460.16Z" transform="translate(-54.05 -79.63)"/><path class="cls-32" d="M334.51,404.13a4.22,4.22,0,1,1-4.21-4.21A4.21,4.21,0,0,1,334.51,404.13Z" transform="translate(-54.05 -79.63)"/><path class="cls-32" d="M299.59,448a7.26,7.26,0,1,1-7.26-7.25A7.25,7.25,0,0,1,299.59,448Z" transform="translate(-54.05 -79.63)"/><path class="cls-32" d="M361.38,460.52a7.26,7.26,0,1,1-7.26-7.25A7.26,7.26,0,0,1,361.38,460.52Z" transform="translate(-54.05 -79.63)"/><path class="cls-32" d="M366.44,399.45a9.25,9.25,0,1,1-9.26-9.25A9.26,9.26,0,0,1,366.44,399.45Z" transform="translate(-54.05 -79.63)"/><path class="cls-33" d="M420.48,464.93s-6.51-5.07-11.89-19.35l2.47-1.51s4,12.39,11.88,19.34Z" transform="translate(-54.05 -79.63)"/><path class="cls-33" d="M391.57,467.1s-3.1-6.28-.58-21.33l2.89-.08s-2.78,11.37.59,21.34Z" transform="translate(-54.05 -79.63)"/><path class="cls-34" d="M434.31,488.9c12.18,5.85,25.35,3.74,29.41-4.69s-2.5-20.06-14.68-25.92-25.35-3.76-29.41,4.7S422.14,483,434.31,488.9Z" transform="translate(-54.05 -79.63)"/><path class="cls-34" d="M450.62,486.76c3.55-7.35-2.18-17.47-12.78-22.57a27.3,27.3,0,0,0-14.06-2.79c5-4.31,14.26-4.77,22.92-.6,10.59,5.11,16.32,15.21,12.79,22.57-1.95,4-6.29,6.42-11.57,6.89A10.39,10.39,0,0,0,450.62,486.76Z" transform="translate(-54.05 -79.63)"/><path class="cls-3" d="M426.48,477c3.43,4.66,7.94,7.17,10,5.61s1-6.59-2.43-11.24-7.94-7.17-10-5.62S423,472.38,426.48,477Z" transform="translate(-54.05 -79.63)"/><path class="cls-34" d="M379.54,493.94c3.19,13.14,13.16,22,22.27,19.78s13.92-14.64,10.73-27.78-13.15-22-22.26-19.77S376.36,480.81,379.54,493.94Z" transform="translate(-54.05 -79.63)"/><path class="cls-34" d="M391.53,505.22c7.93-1.93,12.13-12.77,9.35-24.22a27.48,27.48,0,0,0-6.73-12.64c6.5,1.17,12.7,8,15,17.36,2.76,11.43-1.42,22.28-9.36,24.2-4.36,1.05-8.94-.81-12.65-4.6A10.46,10.46,0,0,0,391.53,505.22Z" transform="translate(-54.05 -79.63)"/><path class="cls-3" d="M383.75,480.35c-1.43,5.62-.52,10.69,2,11.34s5.74-3.39,7.17-9,.51-10.69-2-11.33S385.17,474.74,383.75,480.35Z" transform="translate(-54.05 -79.63)"/><path class="cls-33" d="M451.31,448.74s-49.58-5.21-97.37,8.81l-.72-6.52S424.13,436.09,451.31,448.74Z" transform="translate(-54.05 -79.63)"/><path class="cls-35" d="M313.16,489.2c11.41,25.45,35.29,32.45,56.9,23.6s35.61-31.37,24.19-56.81c-9.81-21.89-32.65-16.37-49.32-3-.91.72-2.61,2.4-5.1,2.06C323,452.8,301.7,463.66,313.16,489.2Z" transform="translate(-54.05 -79.63)"/><path class="cls-36" d="M379.16,455.94s8.88,44.33-38.46,55c0,0,39.36-.79,45.64-21.63S379.16,455.94,379.16,455.94Z" transform="translate(-54.05 -79.63)"/><path class="cls-12" d="M344.07,451.11s16.26-1.81,22.25-6.39a27.65,27.65,0,0,1-24.26,10.6Z" transform="translate(-54.05 -79.63)"/><path class="cls-12" d="M344.07,451.11s-12.59,10-20.18,11c0,0,14.86,2.5,24.76-9.47Z" transform="translate(-54.05 -79.63)"/><path class="cls-12" d="M348.65,452.63s7.73-7.68,6.1-13.8c0,0-3.21,10.45-10.68,12.28S348.65,452.63,348.65,452.63Z" transform="translate(-54.05 -79.63)"/><path class="cls-12" d="M342.06,455.32s-10.11,1.75-11.36-6.64c0,0,6.57,3.51,13.37,2.43Z" transform="translate(-54.05 -79.63)"/><path class="cls-12" d="M347,452.64s13.59,7.54,16.13,4.81c0,0-7.6,4.66-20-2.05Z" transform="translate(-54.05 -79.63)"/><path class="cls-12" d="M347,452.64s-1.07,8.59,1.08,13.79a15.42,15.42,0,0,1-5.5-13.71Z" transform="translate(-54.05 -79.63)"/><path class="cls-12" d="M347,452.64s-4.32-8.43-3.56-11.71c0,0-3,8-.86,11.79Z" transform="translate(-54.05 -79.63)"/><g class="cls-37"><path class="cls-11" d="M439.87,144.42A13.32,13.32,0,0,0,431,131.84V110.21h.13a1.33,1.33,0,0,0,1.32-1.33v-1.67a1.33,1.33,0,0,0-1.32-1.33h-.29l.29-4.32a1.37,1.37,0,0,0-1.38-1.47h-6.32a1.36,1.36,0,0,0-1.37,1.47l.28,4.32H422a1.34,1.34,0,0,0-1.33,1.33v1.67a1.34,1.34,0,0,0,1.33,1.33h.12v21.63a13.33,13.33,0,0,0-8.92,12.58v50.86h0c0,.12,0,.24,0,.37v0a3.93,3.93,0,0,0,3.93,3.92H436a3.93,3.93,0,0,0,3.92-3.92v0c0-.13,0-.25,0-.37h0Zm-1,32.23h-24.7V155.53h24.7Z" transform="translate(-54.05 -79.63)"/><polygon class="cls-11" points="376.05 82.81 372.81 79.86 372.81 79.19 372.17 79.19 372.17 79.9 368.97 82.81 369.4 83.28 372.17 80.77 372.17 83.39 372.81 83.39 372.81 80.73 375.62 83.28 376.05 82.81"/><path class="cls-11" d="M423.39,164a1.58,1.58,0,1,1-1.58-1.55A1.56,1.56,0,0,1,423.39,164Z" transform="translate(-54.05 -79.63)"/><path class="cls-11" d="M426.54,164a1.58,1.58,0,1,1-1.57-1.55A1.55,1.55,0,0,1,426.54,164Z" transform="translate(-54.05 -79.63)"/><path class="cls-11" d="M429.69,164a1.58,1.58,0,1,1-1.57-1.55A1.55,1.55,0,0,1,429.69,164Z" transform="translate(-54.05 -79.63)"/><path class="cls-11" d="M432.84,164a1.58,1.58,0,1,1-1.57-1.55A1.55,1.55,0,0,1,432.84,164Z" transform="translate(-54.05 -79.63)"/><path class="cls-11" d="M425,166.81a1.58,1.58,0,1,1-1.58-1.55A1.56,1.56,0,0,1,425,166.81Z" transform="translate(-54.05 -79.63)"/><path class="cls-11" d="M428.12,166.81a1.58,1.58,0,1,1-1.58-1.55A1.56,1.56,0,0,1,428.12,166.81Z" transform="translate(-54.05 -79.63)"/><path class="cls-11" d="M431.27,166.81a1.58,1.58,0,1,1-1.58-1.55A1.56,1.56,0,0,1,431.27,166.81Z" transform="translate(-54.05 -79.63)"/><path class="cls-11" d="M426.54,169.72a1.58,1.58,0,1,1-1.57-1.55A1.56,1.56,0,0,1,426.54,169.72Z" transform="translate(-54.05 -79.63)"/><path class="cls-11" d="M429.69,169.72a1.58,1.58,0,1,1-1.57-1.55A1.56,1.56,0,0,1,429.69,169.72Z" transform="translate(-54.05 -79.63)"/><path class="cls-11" d="M428.12,172.59a1.58,1.58,0,1,1-1.58-1.55A1.56,1.56,0,0,1,428.12,172.59Z" transform="translate(-54.05 -79.63)"/></g><path class="cls-38" d="M187.3,199.13a34.43,34.43,0,0,1-.23-5.5V170a15.82,15.82,0,0,1,.58-4.88,9,9,0,0,1,2.39-3.47c5.56-4.69,12.85-9,12.18-20.4-.25-4.23-2.76-18.73-3.56-23.52H172.08c-.8,4.79-3.31,19.29-3.56,23.52-.67,11.43,6.62,15.71,12.18,20.4a9.09,9.09,0,0,1,2.4,3.47,16,16,0,0,1,.57,4.88v23.59a34.43,34.43,0,0,1-.23,5.5c-.39,1.16-9.61,3.23-9.61,4.56h23.08C196.91,202.36,187.7,200.29,187.3,199.13Zm-15.42-72.68c.37-2.29.74-4.46,1-6.19l.21-1.26h24.5l.21,1.26c.3,1.74.66,3.9,1,6.19Z" transform="translate(-54.05 -79.63)"/><g class="cls-37"><polygon class="cls-11" points="492 269.12 461.89 282.42 528.24 291.72 492 269.12"/><path class="cls-11" d="M582.29,379.83v-7.35l-66.35-9.3v36.07l66.35,9.29V386.71a3.46,3.46,0,0,1,0-6.88Zm-6.6,11.2a1.74,1.74,0,0,1,1.17.45h0l0,0,.17.18.07.09a1.48,1.48,0,0,1,.13.21l.06.1a1.83,1.83,0,0,1,.08.25l0,.1a1.55,1.55,0,0,1,0,.37,1.77,1.77,0,0,1-1.77,1.78,1.58,1.58,0,0,1-.38,0l-.1,0-.25-.08-.1-.06-.21-.13-.09-.07-.18-.17,0,0h0a1.8,1.8,0,0,1-.45-1.18A1.77,1.77,0,0,1,575.69,391Zm-56.35,6.62a2.21,2.21,0,0,1-.37,0l-.1,0a1,1,0,0,1-.25-.08l-.1-.05a1.48,1.48,0,0,1-.21-.13l-.09-.07c-.06-.06-.13-.11-.18-.17l0,0h0a1.78,1.78,0,0,1,1.32-3,1.75,1.75,0,0,1,1.18.46,0,0,0,0,1,0,0l0,0c.06.05.11.11.17.17l.07.09a1.59,1.59,0,0,1,.13.22.31.31,0,0,1,.05.1,1.84,1.84,0,0,1,.09.25l0,.1a2.21,2.21,0,0,1,0,.37A1.78,1.78,0,0,1,519.34,397.65Zm2.37-11.41a2.73,2.73,0,0,1-.5-.05l-.13,0a1.61,1.61,0,0,1-.33-.12l-.14-.07a1.61,1.61,0,0,1-.28-.17l-.12-.09c-.08-.08-.17-.15-.24-.23s0,0,0,0l0,0a2.36,2.36,0,0,1,1.76-3.94,2.34,2.34,0,0,1,1.58.61l0,0,0,.05a2.39,2.39,0,0,1,.22.23l.1.12.17.28c0,.05.05.09.07.14a2.13,2.13,0,0,1,.11.33.38.38,0,0,1,0,.13,2.14,2.14,0,0,1,.06.5A2.37,2.37,0,0,1,521.71,386.24Zm.61-10a3.77,3.77,0,0,1-.83-.1,2.17,2.17,0,0,1-.24-.07,4.88,4.88,0,0,1-.54-.18l-.23-.13a3.64,3.64,0,0,1-.47-.28l-.2-.17a3.33,3.33,0,0,1-.39-.36l-.08-.07,0,0a3.91,3.91,0,0,1-1-2.63,4,4,0,0,1,4-4,3.91,3.91,0,0,1,2.63,1l0-.05a.27.27,0,0,1,.07.08,3.33,3.33,0,0,1,.36.39,1.63,1.63,0,0,1,.17.2,4.57,4.57,0,0,1,.29.47l.12.23a4.44,4.44,0,0,1,.19.55c0,.08,0,.15.07.22a4.6,4.6,0,0,1,.09.84A4,4,0,0,1,522.32,376.24Zm9.28,21.41a3.39,3.39,0,0,1-.64-.07l-.17-.06a2.59,2.59,0,0,1-.42-.14l-.17-.09a3.13,3.13,0,0,1-.36-.22l-.15-.12a2.87,2.87,0,0,1-.31-.29l0-.05,0,0a3,3,0,0,1-.78-2,3,3,0,0,1,3-3,3,3,0,0,1,2,.78l0,0,0,0a3.84,3.84,0,0,1,.28.3,1,1,0,0,1,.13.16,3.13,3.13,0,0,1,.22.36l.09.17a3,3,0,0,1,.14.42l.06.17a3.39,3.39,0,0,1,.07.64A3,3,0,0,1,531.6,397.65Zm5.95-25.85-.24-.08-.11-.06-.21-.12-.09-.08a1.29,1.29,0,0,1-.17-.16l0,0h0a1.77,1.77,0,0,1,2.5-2.5v0l0,0a1.29,1.29,0,0,1,.16.17l.08.09a2.25,2.25,0,0,1,.12.21l.06.11a1.35,1.35,0,0,1,.08.24.38.38,0,0,1,0,.1,1.58,1.58,0,0,1,0,.38,1.78,1.78,0,0,1-1.78,1.78,1.5,1.5,0,0,1-.37-.05Zm2.83,10.3a4.54,4.54,0,0,1-.6-.36l-.24-.2a4.48,4.48,0,0,1-.5-.47L539,381l0,0a4.94,4.94,0,0,1,7-7,.1.1,0,0,0,0-.05l.08.08a5.79,5.79,0,0,1,.48.51l.19.24a4.72,4.72,0,0,1,.37.61,2.29,2.29,0,0,1,.14.27,4.13,4.13,0,0,1,.24.7c0,.09.07.18.09.27a5.19,5.19,0,0,1,.11,1.05,5,5,0,0,1-5,5,5,5,0,0,1-1-.11c-.1,0-.19-.07-.29-.09a5.63,5.63,0,0,1-.69-.24C540.56,382.21,540.48,382.15,540.38,382.1Zm2.3,7.87a1.5,1.5,0,0,1-.37,0l-.09,0a1.14,1.14,0,0,1-.26-.09l-.09,0-.23-.14-.08-.06-.19-.18,0,0h0a1.75,1.75,0,0,1-.45-1.18,1.77,1.77,0,0,1,1.77-1.77,1.84,1.84,0,0,1,1.18.45h0l0,0a1.54,1.54,0,0,1,.17.19l.07.08a1.59,1.59,0,0,1,.13.22.41.41,0,0,1,0,.09,2,2,0,0,1,.09.26l0,.09a2.33,2.33,0,0,1,0,.37A1.78,1.78,0,0,1,542.68,390Zm4.19,11.47a1.5,1.5,0,0,1-.37,0l-.11,0-.24-.08-.11-.06-.2-.12-.1-.08a1.29,1.29,0,0,1-.17-.16l0,0s0,0,0,0a1.77,1.77,0,0,1,2.5-2.5v0l0,0,.16.18.08.09a1.13,1.13,0,0,1,.12.21l.06.1a1.21,1.21,0,0,1,.08.25l0,.1a2.45,2.45,0,0,1,0,.38A1.78,1.78,0,0,1,546.87,401.44Zm7.88-2.33a2.73,2.73,0,0,1-.64-.07l-.17-.05a3,3,0,0,1-.42-.14l-.17-.1a2.12,2.12,0,0,1-.36-.21l-.16-.13-.3-.28s0,0,0-.05l0,0a3,3,0,0,1-.78-2,3,3,0,0,1,3-3,3,3,0,0,1,2,.78s0,0,0,0l0,.06c.1.1.2.2.29.31l.12.14c.08.12.15.24.22.37l.09.17a3,3,0,0,1,.15.42c0,.06,0,.11.05.17a3.39,3.39,0,0,1,.07.64A3,3,0,0,1,554.75,399.11Zm3.5-24.26,0,0h0a1.77,1.77,0,0,1,1.32-2.95,1.75,1.75,0,0,1,1.18.45h0l0,0a1.54,1.54,0,0,1,.17.19l.07.08a1.59,1.59,0,0,1,.13.22.31.31,0,0,1,0,.1,1.84,1.84,0,0,1,.09.25l0,.1a2.21,2.21,0,0,1,0,.37,1.78,1.78,0,0,1-1.78,1.78,2.21,2.21,0,0,1-.37,0l-.1,0a1,1,0,0,1-.25-.08l-.1-.06a.72.72,0,0,1-.21-.12l-.09-.08A.93.93,0,0,1,558.25,374.85Zm2,27.93a1.5,1.5,0,0,1-.37,0l-.11,0a2.34,2.34,0,0,1-.24-.09l-.11-.05a1.37,1.37,0,0,1-.2-.13.39.39,0,0,1-.1-.08l-.17-.15,0,0h0a1.75,1.75,0,0,1-.45-1.18,1.77,1.77,0,0,1,1.77-1.77,1.75,1.75,0,0,1,1.18.45h0l0,0,.17.18.07.09a1.59,1.59,0,0,1,.13.22.41.41,0,0,1,.05.09,1.06,1.06,0,0,1,.09.25l0,.1a1.5,1.5,0,0,1,0,.37A1.78,1.78,0,0,1,560.2,402.78Zm6-10.43a2.73,2.73,0,0,1-.5-.06l-.14,0-.32-.11-.14-.08a1.61,1.61,0,0,1-.28-.17l-.11-.09a1.84,1.84,0,0,1-.25-.23.08.08,0,0,1,0,0l0,0a2.36,2.36,0,0,1,1.76-3.94,2.34,2.34,0,0,1,1.58.61l0,0,0,0a2.39,2.39,0,0,1,.22.23,1.47,1.47,0,0,1,.1.13c.06.08.11.18.17.28l.07.13a2.13,2.13,0,0,1,.11.33.37.37,0,0,1,0,.14,2.07,2.07,0,0,1,.06.5A2.37,2.37,0,0,1,566.24,392.35Zm2.64-13.58-.17-.09-.37-.22-.14-.12a2.87,2.87,0,0,1-.31-.29l0-.05,0,0a3,3,0,0,1,4.25-4.25s0,0,0,0l0,.05a4,4,0,0,1,.28.3c0,.05.09.1.13.16a2.5,2.5,0,0,1,.21.35l.1.18a2.59,2.59,0,0,1,.14.42l.06.17a3.39,3.39,0,0,1,.07.64,3,3,0,0,1-3,3,3.39,3.39,0,0,1-.64-.07l-.16-.06A2.71,2.71,0,0,1,568.88,378.77Zm10.32,22.35a5.19,5.19,0,0,1,.11,1.05,5,5,0,0,1-5,5,5.2,5.2,0,0,1-1.05-.12,2.29,2.29,0,0,1-.28-.09,4,4,0,0,1-.69-.23l-.29-.16a5.08,5.08,0,0,1-.59-.35c-.08-.06-.16-.14-.24-.21a3.64,3.64,0,0,1-.5-.46.73.73,0,0,1-.09-.08l0,0a4.88,4.88,0,0,1-1.28-3.29,4.94,4.94,0,0,1,8.26-3.68l0-.06a.73.73,0,0,0,.08.09c.17.16.32.33.47.5s.14.16.2.25a5.17,5.17,0,0,1,.36.59c0,.1.11.19.15.29a3.89,3.89,0,0,1,.23.68C579.13,400.93,579.17,401,579.2,401.12Z" transform="translate(-54.05 -79.63)"/></g><path class="cls-38" d="M89.58,379.19c-.45-11.41-8-19.83-11-25.88-2.32-4.61-2-18.22-1.7-23.79H77a1.5,1.5,0,0,0,1.49-1.5v-1.88A1.49,1.49,0,0,0,77,324.65h-.16l.16-2.43a1.53,1.53,0,0,0-1.54-1.65H68.33a1.53,1.53,0,0,0-1.54,1.65l.16,2.43h-.16a1.49,1.49,0,0,0-1.49,1.49V328a1.5,1.5,0,0,0,1.49,1.5h.13c.26,5.57.63,19.18-1.69,23.79-3,6.05-10.58,14.47-11,25.88-.66,16.57,1.12,40,1.12,40s0,.24,0,.33c.3,1.71,2.15,3,4.37,3H84.05c2.25,0,4.12-1.37,4.37-3.11,0-.07,0-.24,0-.25S90.24,395.76,89.58,379.19Zm-1.22,21.42H55.42c-.3-8.28-.35-15.36-.13-21.05h33.2C88.71,385.25,88.66,392.33,88.36,400.61Z" transform="translate(-54.05 -79.63)"/><path class="cls-38" d="M78.79,388.67c.46-.07.77-.38.76-.57,0-.34-1.49-.71-1.49-.71.3-.06.77-.28.85-.51s-1.87-.64-1.87-.64c.26-.15,1.56-1.12,1.49-1.36s-.27-.4-1-.43a5.13,5.13,0,0,0-2,.52l0,0c-.09-.12.78-1.31.48-1.6s-1.39.67-1.48.66-.16-.33-.26-.32-.37.62-.58.61-.39-.43-.39-.26a2.48,2.48,0,0,1-.58,1.54,2.82,2.82,0,0,1-.94.62c0-1.29.16-3.12,1-3.84l-.58-.24c-.66.53-.77,1.74-.87,3.32,0,.26,0,.51,0,.74a3,3,0,0,1-.9-.6,2.52,2.52,0,0,1-.57-1.54c0-.17-.29.27-.39.26s-.42-.69-.59-.61-.16.31-.25.32-1.28-.85-1.48-.66.56,1.48.48,1.6a6.78,6.78,0,0,0-2-.5c-.78,0-1,.21-1.05.43s1.23,1.21,1.49,1.36c0,0-2,.4-1.87.64s.55.45.85.51c0,0-1.46.37-1.48.71,0,.19.29.5.76.57,0,0-1.23.55-1.23.74s.45.52.93.56c0,0-.91,1-.77,1.22s.62.15,1.36,0c0,0,0,.3.21.38a2.3,2.3,0,0,0,1.28-.59s-.13.52,0,.56c.34.09,1.48-1.64,2.17-1.28s-.88,1.39-1.21,1.63c0,0,0,.12.18.1s-.32.71-.42.81.19.21.28.2-.24,1.15,0,1.24.65-.49.7-.36,0,1.64.11,1.69.86-.8.9-.58-.06.83.09,1,.64-.37.72-.31-.08.8.07.86.43-.15.52,0a2.22,2.22,0,0,0,1.16,1h.11a2.85,2.85,0,0,0,1.2-1c.09-.13.4.07.51,0s0-.81.08-.86.58.47.72.31.05-.78.09-1,.76.63.9.58.06-1.56.11-1.69.51.42.7.36,0-1.24,0-1.24.38-.09.28-.2-.61-.82-.42-.81.18-.1.18-.1c-.33-.24-1.76-1.34-1.22-1.63.7-.36,1.83,1.37,2.18,1.28.16,0,0-.56,0-.56a2.24,2.24,0,0,0,1.28.59c.17-.08.21-.38.21-.38.74.13,1.24.19,1.36,0s-.77-1.22-.77-1.22c.48,0,.93-.4.93-.56S78.79,388.67,78.79,388.67Z" transform="translate(-54.05 -79.63)"/></g></g></svg>